<svg id="disenoWebimagenCorporativa" xmlns="http://www.w3.org/2000/svg" width="160" height="160" viewBox="0 0 160 160">
  <rect id="Rectángulo_157" data-name="Rectángulo 157" width="160" height="160" fill="none"/>
  <g id="Grupo_31" data-name="Grupo 31" transform="translate(-425.366 -841.896)">
    <g id="Trazado_87" data-name="Trazado 87" fill="#ebebeb" stroke-linecap="round" stroke-linejoin="round">
      <path d="M 528.1922607421875 978.1309814453125 C 526.0064086914063 978.1309814453125 523.8875122070313 977.2604370117188 522.0645751953125 975.6134033203125 C 520.1207885742188 973.857177734375 518.6221923828125 971.31689453125 517.7307739257813 968.2671508789063 C 516.70458984375 964.7549438476563 516.473876953125 959.7657470703125 516.2296142578125 954.4835815429688 C 515.9601440429688 948.6570434570313 515.6815185546875 942.6321411132813 514.2771606445313 937.9583129882813 C 512.5570068359375 932.233642578125 509.2638244628906 929.3309936523438 504.489013671875 929.3309936523438 C 499.7145385742188 929.3309936523438 496.4216003417969 932.2335815429688 494.70166015625 937.9581298828125 C 493.2973937988281 942.6318359375 493.0188293457031 948.6566162109375 492.7494201660156 954.4830932617188 C 492.5051574707031 959.7654418945313 492.2744445800781 964.7548217773438 491.2481994628906 968.2672729492188 C 490.35693359375 971.3165283203125 488.8582763671875 973.8567504882813 486.9142456054688 975.6131591796875 C 485.0911254882813 977.2603149414063 482.9722595214844 978.1309814453125 480.7867431640625 978.1309814453125 C 479.1930236816406 978.1309814453125 477.6083984375 977.6724853515625 476.0768432617188 976.7682495117188 C 474.3785400390625 975.7654418945313 472.79443359375 974.2427368164063 471.3684387207031 972.2423095703125 C 468.054443359375 967.5936889648438 463.8465881347656 953.0872192382813 460.1123962402344 933.4375 C 456.7357177734375 915.6691284179688 454.4670104980469 897.4747314453125 454.4670104980469 888.1630249023438 C 454.4670104980469 883.947265625 455.3781433105469 880.1173706054688 457.1751098632813 876.7797241210938 C 458.7231140136719 873.904541015625 460.9218444824219 871.39208984375 463.710205078125 869.312255859375 C 466.0638122558594 867.5567016601563 468.8470153808594 866.12158203125 471.7589111328125 865.1620483398438 C 474.2248229980469 864.3494873046875 476.6998291015625 863.9019775390625 478.7279968261719 863.9019775390625 C 482.5301818847656 863.9019775390625 486.5359191894531 864.8530883789063 490.7768249511719 865.8599853515625 C 495.212158203125 866.9130859375 499.7984924316406 868.0020141601563 504.3720092773438 868.0020141601563 C 508.9430847167969 868.0020141601563 513.5892333984375 866.9136352539063 518.0824584960938 865.8611450195313 C 522.3834228515625 864.8536376953125 526.4459228515625 863.9019775390625 530.2509765625 863.9019775390625 C 532.2791748046875 863.9019775390625 534.754150390625 864.3494873046875 537.2200927734375 865.1620483398438 C 540.1320190429688 866.12158203125 542.9151611328125 867.5567016601563 545.268798828125 869.312255859375 C 548.0571899414063 871.39208984375 550.2559204101563 873.904541015625 551.8038940429688 876.7797241210938 C 553.6008911132813 880.1173706054688 554.5120239257813 883.947265625 554.5120239257813 888.1630249023438 C 554.5120239257813 897.4747314453125 552.2433471679688 915.6691284179688 548.8666381835938 933.4375 C 545.1324462890625 953.0872192382813 540.924560546875 967.5936889648438 537.610595703125 972.2422485351563 C 536.184814453125 974.242431640625 534.6006469726563 975.7650756835938 532.902099609375 976.7679443359375 C 531.3703002929688 977.6724243164063 529.78564453125 978.1309814453125 528.1922607421875 978.1309814453125 Z" stroke="none"/>
      <path d="M 528.1922607421875 976.6309814453125 C 529.5137939453125 976.6309814453125 530.841796875 976.2424926757813 532.1394653320313 975.476318359375 C 533.6561279296875 974.580810546875 535.0859375 973.1997680664063 536.38916015625 971.3715209960938 C 537.5143432617188 969.793212890625 539.385986328125 966.0374145507813 541.9127197265625 957.1074829101563 C 543.76318359375 950.5676879882813 545.6582641601563 942.285888671875 547.3930053710938 933.1574096679688 C 550.75390625 915.4720458984375 553.0120239257813 897.3901977539063 553.0120239257813 888.1630249023438 C 553.0120239257813 884.1981811523438 552.1611938476563 880.6075439453125 550.483154296875 877.4908447265625 C 549.0396728515625 874.8097534179688 546.9835815429688 872.462646484375 544.3719482421875 870.5145874023438 C 539.6370239257813 866.9828491210938 533.8679809570313 865.4019775390625 530.2509765625 865.4019775390625 C 526.6192016601563 865.4019775390625 522.6387329101563 866.3344116210938 518.424560546875 867.3215942382813 C 513.848388671875 868.3935546875 509.1164245605469 869.5020141601563 504.3720092773438 869.5020141601563 C 499.6228942871094 869.5020141601563 494.9496765136719 868.3924560546875 490.4303283691406 867.3193969726563 C 486.2772521972656 866.3333740234375 482.3545532226563 865.4019775390625 478.7279968261719 865.4019775390625 C 475.1110229492188 865.4019775390625 469.3419494628906 866.9828491210938 464.6070556640625 870.5145874023438 C 461.9954223632813 872.462646484375 459.9393310546875 874.8097534179688 458.495849609375 877.4908447265625 C 456.8178405761719 880.6075439453125 455.9670104980469 884.1981811523438 455.9670104980469 888.1630249023438 C 455.9670104980469 897.3901977539063 458.2251281738281 915.4720458984375 461.5859985351563 933.1574096679688 C 463.3207702636719 942.285888671875 465.2158203125 950.5676879882813 467.0662536621094 957.1074829101563 C 469.593017578125 966.0374145507813 471.4646606445313 969.793212890625 472.5899047851563 971.3716430664063 C 473.8932800292969 973.2000732421875 475.3230590820313 974.5811767578125 476.8395080566406 975.4765625 C 478.1369018554688 976.2426147460938 479.4649353027344 976.6309814453125 480.7867126464844 976.6309814453125 C 484.7074279785156 976.6309204101563 488.2486877441406 973.1827392578125 489.8083801269531 967.8466186523438 C 490.7843627929688 964.50634765625 491.0110168457031 959.60400390625 491.2510375976563 954.4137573242188 C 491.524658203125 948.4963989257813 491.8075866699219 942.3775634765625 493.2650756835938 937.5264892578125 C 495.6727600097656 929.5130615234375 500.6976318359375 927.8309936523438 504.489013671875 927.8309936523438 C 508.2806396484375 927.8309936523438 513.3057861328125 929.5131225585938 515.7136840820313 937.526611328125 C 517.17138671875 942.3778686523438 517.454345703125 948.496826171875 517.7279663085938 954.414306640625 C 517.968017578125 959.6043090820313 518.1947021484375 964.5064697265625 519.1705322265625 967.8463134765625 C 520.7303466796875 973.1828002929688 524.2715454101563 976.6309814453125 528.1922607421875 976.6309814453125 M 528.1922607421875 979.6309814453125 C 523.037841796875 979.6309814453125 518.291748046875 975.5331420898438 516.291015625 968.68798828125 C 512.8880004882813 957.041015625 517.8660278320313 930.8309936523438 504.489013671875 930.8309936523438 C 491.1130065917969 930.8309936523438 496.0910034179688 957.041015625 492.68798828125 968.68798828125 C 490.6874389648438 975.5324096679688 485.9405517578125 979.6309814453125 480.7867431640625 979.6309814453125 C 477.1712036132813 979.6310424804688 473.35546875 977.614013671875 470.1470031738281 973.1129760742188 C 462.364990234375 962.197021484375 452.9670104980469 907.291015625 452.9670104980469 888.1630249023438 C 452.9670104980469 869.0360107421875 470.6369934082031 862.4019775390625 478.7279968261719 862.4019775390625 C 486.8190002441406 862.4019775390625 495.7210083007813 866.5020141601563 504.3720092773438 866.5020141601563 C 513.0230102539063 866.5020141601563 522.1589965820313 862.4019775390625 530.2509765625 862.4019775390625 C 538.3419799804688 862.4019775390625 556.0120239257813 869.0360107421875 556.0120239257813 888.1630249023438 C 556.0120239257813 907.291015625 546.614013671875 962.197021484375 538.8319702148438 973.1129760742188 C 535.6240234375 977.6133422851563 531.8073120117188 979.6309814453125 528.1922607421875 979.6309814453125 Z" stroke="none" fill="#161615"/>
    </g>
    <g id="Grupo_29" data-name="Grupo 29" transform="translate(-1)">
      <g id="Grupo_28" data-name="Grupo 28">
        <g id="Trazado_88" data-name="Trazado 88" fill="#ebebeb" stroke-miterlimit="10">
          <path d="M 462.9970092773438 969.3610229492188 C 459.1421508789063 969.3610229492188 456.0060119628906 966.2252807617188 456.0060119628906 962.3709716796875 L 456.0060119628906 945.97802734375 C 456.0060119628906 943.98193359375 454.382080078125 942.3579711914063 452.385986328125 942.3579711914063 L 443.8569946289063 942.3579711914063 C 440.0021362304688 942.3579711914063 436.8659973144531 939.2218627929688 436.8659973144531 935.3670043945313 C 436.8659973144531 931.5121459960938 440.0021362304688 928.3759765625 443.8569946289063 928.3759765625 L 452.385986328125 928.3759765625 C 454.382080078125 928.3759765625 456.0060119628906 926.7525024414063 456.0060119628906 924.7570190429688 L 456.0060119628906 908.3629760742188 C 456.0060119628906 904.5086669921875 459.1421508789063 901.3729858398438 462.9970092773438 901.3729858398438 C 466.8518676757813 901.3729858398438 469.9880065917969 904.5086669921875 469.9880065917969 908.3629760742188 L 469.9880065917969 924.7570190429688 C 469.9880065917969 926.7525024414063 471.6114807128906 928.3759765625 473.6069946289063 928.3759765625 L 482.1369934082031 928.3759765625 C 485.9913024902344 928.3759765625 489.1270141601563 931.5121459960938 489.1270141601563 935.3670043945313 C 489.1270141601563 939.2218627929688 485.9913024902344 942.3579711914063 482.1369934082031 942.3579711914063 L 473.6069946289063 942.3579711914063 C 471.6114807128906 942.3579711914063 469.9880065917969 943.98193359375 469.9880065917969 945.97802734375 L 469.9880065917969 962.3709716796875 C 469.9880065917969 966.2252807617188 466.8518676757813 969.3610229492188 462.9970092773438 969.3610229492188 Z" stroke="none"/>
          <path d="M 462.9970092773438 902.8729858398438 C 459.968994140625 902.8729858398438 457.5060119628906 905.3359985351563 457.5060119628906 908.3629760742188 L 457.5060119628906 924.7570190429688 C 457.5060119628906 927.5789794921875 455.2090148925781 929.8759765625 452.385986328125 929.8759765625 L 443.8569946289063 929.8759765625 C 440.8290100097656 929.8759765625 438.3659973144531 932.3389892578125 438.3659973144531 935.3670043945313 C 438.3659973144531 938.39599609375 440.8290100097656 940.8579711914063 443.8569946289063 940.8579711914063 L 452.385986328125 940.8579711914063 C 455.2090148925781 940.8579711914063 457.5060119628906 943.155029296875 457.5060119628906 945.97802734375 L 457.5060119628906 962.3709716796875 C 457.5060119628906 965.3980102539063 459.968994140625 967.8610229492188 462.9970092773438 967.8610229492188 C 466.0249938964844 967.8610229492188 468.4880065917969 965.3980102539063 468.4880065917969 962.3709716796875 L 468.4880065917969 945.97802734375 C 468.4880065917969 943.155029296875 470.7850036621094 940.8579711914063 473.6069946289063 940.8579711914063 L 482.1369934082031 940.8579711914063 C 485.1640014648438 940.8579711914063 487.6270141601563 938.39599609375 487.6270141601563 935.3670043945313 C 487.6270141601563 932.3389892578125 485.1640014648438 929.8759765625 482.1369934082031 929.8759765625 L 473.6069946289063 929.8759765625 C 470.7850036621094 929.8759765625 468.4880065917969 927.5789794921875 468.4880065917969 924.7570190429688 L 468.4880065917969 908.3629760742188 C 468.4880065917969 905.3359985351563 466.0249938964844 902.8729858398438 462.9970092773438 902.8729858398438 M 462.9970092773438 899.8729858398438 C 467.678955078125 899.8729858398438 471.4880065917969 903.6815795898438 471.4880065917969 908.3629760742188 L 471.4880065917969 924.7570190429688 C 471.4880065917969 925.9254150390625 472.4385681152344 926.8759765625 473.6069946289063 926.8759765625 L 482.1369934082031 926.8759765625 C 486.8184204101563 926.8759765625 490.6270141601563 930.68505859375 490.6270141601563 935.3670043945313 C 490.6270141601563 940.0489501953125 486.8184204101563 943.8579711914063 482.1369934082031 943.8579711914063 L 473.6069946289063 943.8579711914063 C 472.4385681152344 943.8579711914063 471.4880065917969 944.8090209960938 471.4880065917969 945.97802734375 L 471.4880065917969 962.3709716796875 C 471.4880065917969 967.0524291992188 467.678955078125 970.8610229492188 462.9970092773438 970.8610229492188 C 458.3150634765625 970.8610229492188 454.5060119628906 967.0524291992188 454.5060119628906 962.3709716796875 L 454.5060119628906 945.97802734375 C 454.5060119628906 944.8090209960938 453.5549621582031 943.8579711914063 452.385986328125 943.8579711914063 L 443.8569946289063 943.8579711914063 C 439.175048828125 943.8579711914063 435.3659973144531 940.0489501953125 435.3659973144531 935.3670043945313 C 435.3659973144531 930.68505859375 439.175048828125 926.8759765625 443.8569946289063 926.8759765625 L 452.385986328125 926.8759765625 C 453.5549621582031 926.8759765625 454.5060119628906 925.9254150390625 454.5060119628906 924.7570190429688 L 454.5060119628906 908.3629760742188 C 454.5060119628906 903.6815795898438 458.3150634765625 899.8729858398438 462.9970092773438 899.8729858398438 Z" stroke="none" fill="#ebebeb"/>
        </g>
      </g>
      <path id="Trazado_89" data-name="Trazado 89" d="M482.22,931.376h-8.53a6.618,6.618,0,0,1-6.619-6.619V908.363a3.991,3.991,0,0,0-7.982,0v16.394a6.619,6.619,0,0,1-6.62,6.619H443.94a3.991,3.991,0,1,0,0,7.982h8.529a6.62,6.62,0,0,1,6.62,6.62v16.393a3.991,3.991,0,1,0,7.982,0V945.978a6.619,6.619,0,0,1,6.619-6.62h8.53a3.991,3.991,0,0,0,0-7.982Z" fill="#ebebeb" stroke="#00509c" stroke-linecap="round" stroke-linejoin="round" stroke-width="3"/>
    </g>
    <g id="Grupo_30" data-name="Grupo 30">
      <g id="Trazado_90" data-name="Trazado 90" fill="#ebebeb" stroke-miterlimit="10">
        <path d="M 532.8489990234375 936.739990234375 C 528.4493408203125 936.739990234375 524.8699951171875 933.16064453125 524.8699951171875 928.760986328125 L 524.8699951171875 908.3079833984375 C 524.8699951171875 905.4075927734375 522.5103759765625 903.0479736328125 519.6099853515625 903.0479736328125 L 508.9679870605469 903.0479736328125 C 504.568359375 903.0479736328125 500.989013671875 899.4681396484375 500.989013671875 895.0679931640625 C 500.989013671875 890.6683349609375 504.568359375 887.0889892578125 508.9679870605469 887.0889892578125 L 519.6099853515625 887.0889892578125 C 522.5103759765625 887.0889892578125 524.8699951171875 884.7298583984375 524.8699951171875 881.8300170898438 L 524.8699951171875 861.3759765625 C 524.8699951171875 856.975830078125 528.4493408203125 853.39599609375 532.8489990234375 853.39599609375 C 537.2491455078125 853.39599609375 540.8289794921875 856.975830078125 540.8289794921875 861.3759765625 L 540.8289794921875 881.8300170898438 C 540.8289794921875 884.7298583984375 543.1876831054688 887.0889892578125 546.0869750976563 887.0889892578125 L 556.72998046875 887.0889892578125 C 561.129638671875 887.0889892578125 564.708984375 890.6683349609375 564.708984375 895.0679931640625 C 564.708984375 899.4681396484375 561.129638671875 903.0479736328125 556.72998046875 903.0479736328125 L 546.0869750976563 903.0479736328125 C 543.1876831054688 903.0479736328125 540.8289794921875 905.4075927734375 540.8289794921875 908.3079833984375 L 540.8289794921875 928.760986328125 C 540.8289794921875 933.16064453125 537.2491455078125 936.739990234375 532.8489990234375 936.739990234375 Z" stroke="none"/>
        <path d="M 532.8489990234375 854.89599609375 C 529.2760009765625 854.89599609375 526.3699951171875 857.802978515625 526.3699951171875 861.3759765625 L 526.3699951171875 881.8300170898438 C 526.3699951171875 885.5570068359375 523.3369750976563 888.5889892578125 519.6099853515625 888.5889892578125 L 508.968017578125 888.5889892578125 C 505.39501953125 888.5889892578125 502.489013671875 891.4949951171875 502.489013671875 895.0679931640625 C 502.489013671875 898.6420288085938 505.39501953125 901.5479736328125 508.968017578125 901.5479736328125 L 519.6099853515625 901.5479736328125 C 523.3369750976563 901.5479736328125 526.3699951171875 904.5800170898438 526.3699951171875 908.3079833984375 L 526.3699951171875 928.760986328125 C 526.3699951171875 932.333984375 529.2760009765625 935.239990234375 532.8489990234375 935.239990234375 C 536.4219970703125 935.239990234375 539.3289794921875 932.333984375 539.3289794921875 928.760986328125 L 539.3289794921875 908.3079833984375 C 539.3289794921875 904.5800170898438 542.3610229492188 901.5479736328125 546.0869750976563 901.5479736328125 L 556.72998046875 901.5479736328125 C 560.302978515625 901.5479736328125 563.208984375 898.6420288085938 563.208984375 895.0679931640625 C 563.208984375 891.4949951171875 560.302978515625 888.5889892578125 556.72998046875 888.5889892578125 L 546.0869750976563 888.5889892578125 C 542.3610229492188 888.5889892578125 539.3289794921875 885.5570068359375 539.3289794921875 881.8300170898438 L 539.3289794921875 861.3759765625 C 539.3289794921875 857.802978515625 536.4219970703125 854.89599609375 532.8489990234375 854.89599609375 M 532.8489990234375 851.89599609375 C 538.0762939453125 851.89599609375 542.3289794921875 856.148681640625 542.3289794921875 861.3759765625 L 542.3289794921875 881.8300170898438 C 542.3289794921875 883.9027099609375 544.0148315429688 885.5889892578125 546.0869750976563 885.5889892578125 L 556.72998046875 885.5889892578125 C 561.9567260742188 885.5889892578125 566.208984375 889.8412475585938 566.208984375 895.0679931640625 C 566.208984375 900.2952880859375 561.9567260742188 904.5479736328125 556.72998046875 904.5479736328125 L 546.0869750976563 904.5479736328125 C 544.0148315429688 904.5479736328125 542.3289794921875 906.2346801757813 542.3289794921875 908.3079833984375 L 542.3289794921875 928.760986328125 C 542.3289794921875 933.9877319335938 538.0762939453125 938.239990234375 532.8489990234375 938.239990234375 C 527.6222534179688 938.239990234375 523.3699951171875 933.9877319335938 523.3699951171875 928.760986328125 L 523.3699951171875 908.3079833984375 C 523.3699951171875 906.2346801757813 521.6832275390625 904.5479736328125 519.6099853515625 904.5479736328125 L 508.968017578125 904.5479736328125 C 503.7412719726563 904.5479736328125 499.489013671875 900.2952880859375 499.489013671875 895.0679931640625 C 499.489013671875 889.8412475585938 503.7412719726563 885.5889892578125 508.968017578125 885.5889892578125 L 519.6099853515625 885.5889892578125 C 521.6832275390625 885.5889892578125 523.3699951171875 883.9027099609375 523.3699951171875 881.8300170898438 L 523.3699951171875 861.3759765625 C 523.3699951171875 856.148681640625 527.6222534179688 851.89599609375 532.8489990234375 851.89599609375 Z" stroke="none" fill="#ebebeb"/>
      </g>
      <path id="Trazado_91" data-name="Trazado 91" d="M556.73,890.089H546.088a8.26,8.26,0,0,1-8.26-8.259V861.376a4.979,4.979,0,1,0-9.958,0V881.83a8.26,8.26,0,0,1-8.26,8.259H508.968a4.979,4.979,0,0,0,0,9.959H519.61a8.26,8.26,0,0,1,8.26,8.259v20.454a4.979,4.979,0,1,0,9.958,0V908.307a8.26,8.26,0,0,1,8.26-8.259H556.73a4.979,4.979,0,1,0,0-9.959Z" fill="#ebebeb" stroke="#00509c" stroke-linecap="round" stroke-linejoin="round" stroke-width="3"/>
    </g>
  </g>
</svg>
