<svg id="disenoWebAlojamiento" xmlns="http://www.w3.org/2000/svg" width="160" height="160" viewBox="0 0 160 160">
  <rect id="Rectángulo_157" data-name="Rectángulo 157" width="160" height="160" fill="none"/>
  <g id="Grupo_31" data-name="Grupo 31" transform="translate(-425.366 -841.896)">
    <g id="Trazado_87" data-name="Trazado 87" fill="#ebebeb" stroke-linecap="round" stroke-linejoin="round">
      <path d="M 528.1922607421875 978.1309814453125 C 526.0064086914063 978.1309814453125 523.8875122070313 977.2604370117188 522.0645751953125 975.6134033203125 C 520.1207885742188 973.857177734375 518.6221923828125 971.31689453125 517.7307739257813 968.2671508789063 C 516.70458984375 964.7549438476563 516.473876953125 959.7657470703125 516.2296142578125 954.4835815429688 C 515.9601440429688 948.6570434570313 515.6815185546875 942.6321411132813 514.2771606445313 937.9583129882813 C 512.5570068359375 932.233642578125 509.2638244628906 929.3309936523438 504.489013671875 929.3309936523438 C 499.7145690917969 929.3309936523438 496.4216003417969 932.2335815429688 494.7016296386719 937.9581298828125 C 493.2973937988281 942.6318359375 493.0188293457031 948.6566162109375 492.7494201660156 954.4830932617188 C 492.5051574707031 959.7654418945313 492.2744445800781 964.7548217773438 491.2481994628906 968.2672729492188 C 490.35693359375 971.3165283203125 488.8582763671875 973.856689453125 486.9142456054688 975.6131591796875 C 485.0911254882813 977.2603149414063 482.9722595214844 978.1309814453125 480.7867431640625 978.1309814453125 C 479.1930541992188 978.1309814453125 477.6084289550781 977.6724853515625 476.0768737792969 976.7681884765625 C 474.3785705566406 975.7654418945313 472.7944030761719 974.2427368164063 471.3684387207031 972.2423095703125 C 468.054443359375 967.5936889648438 463.8465881347656 953.0872192382813 460.1123657226563 933.4375 C 456.9086303710938 916.5789794921875 454.7023010253906 899.3378295898438 454.4847412109375 889.6630249023438 L 554.4943237304688 889.6630249023438 C 554.2767333984375 899.3378295898438 552.0703735351563 916.5789794921875 548.8666381835938 933.4375 C 545.1324462890625 953.0872192382813 540.924560546875 967.5936889648438 537.610595703125 972.2422485351563 C 536.184814453125 974.242431640625 534.6006469726563 975.7650756835938 532.902099609375 976.7679443359375 C 531.3703002929688 977.6724243164063 529.78564453125 978.1309814453125 528.1922607421875 978.1309814453125 Z" stroke="none"/>
      <path d="M 456.0326538085938 891.1630249023438 C 456.4260864257813 900.9755249023438 458.5586547851563 917.2272338867188 461.5859985351563 933.1574096679688 C 463.3207397460938 942.285888671875 465.2158203125 950.5676879882813 467.0662841796875 957.1074829101563 C 469.593017578125 966.0374145507813 471.464599609375 969.793212890625 472.58984375 971.3716430664063 C 473.8932495117188 973.2000732421875 475.322998046875 974.5811767578125 476.8394775390625 975.4765625 C 478.1368408203125 976.2425537109375 479.4649047851563 976.6309814453125 480.7867431640625 976.6309814453125 C 484.7074584960938 976.6309814453125 488.2486572265625 973.1828002929688 489.8084106445313 967.8466186523438 C 490.7843627929688 964.50634765625 491.0110473632813 959.60400390625 491.2510375976563 954.413818359375 C 491.524658203125 948.4963989257813 491.8075561523438 942.3775634765625 493.2650756835938 937.5264892578125 C 495.6727905273438 929.5130615234375 500.6976318359375 927.8309936523438 504.489013671875 927.8309936523438 C 508.2806396484375 927.8309936523438 513.3057861328125 929.5131225585938 515.7136840820313 937.526611328125 C 517.17138671875 942.3778076171875 517.454345703125 948.496826171875 517.7279663085938 954.414306640625 C 517.968017578125 959.6043090820313 518.1947021484375 964.5064697265625 519.1705322265625 967.8463134765625 C 520.7303466796875 973.1828002929688 524.2716064453125 976.6309814453125 528.1922607421875 976.6309814453125 C 529.5137939453125 976.6309814453125 530.841796875 976.2424926757813 532.1394653320313 975.476318359375 C 533.6561279296875 974.580810546875 535.0859375 973.1997680664063 536.38916015625 971.3715209960938 C 537.5143432617188 969.793212890625 539.385986328125 966.037353515625 541.9127197265625 957.107421875 C 543.76318359375 950.5676879882813 545.658203125 942.285888671875 547.3930053710938 933.1574096679688 C 550.42041015625 917.2272338867188 552.552978515625 900.9755249023438 552.9464111328125 891.1630249023438 L 456.0326538085938 891.1630249023438 M 452.967041015625 888.1630249023438 C 494.8319091796875 888.1630249023438 527.5391845703125 888.1630249023438 556.0120239257813 888.1630249023438 C 556.0120239257813 907.291015625 546.614013671875 962.197021484375 538.8319702148438 973.1129760742188 C 535.6240234375 977.6133422851563 531.8072509765625 979.6309814453125 528.1922607421875 979.6309814453125 C 523.037841796875 979.6309814453125 518.291748046875 975.5331420898438 516.291015625 968.68798828125 C 512.8880004882813 957.041015625 517.8660278320313 930.8309936523438 504.489013671875 930.8309936523438 C 491.113037109375 930.8309936523438 496.0910034179688 957.041015625 492.68798828125 968.68798828125 C 490.6874389648438 975.5324096679688 485.9405517578125 979.6309814453125 480.7867431640625 979.6309814453125 C 477.1712036132813 979.6309814453125 473.3554077148438 977.614013671875 470.14697265625 973.1129760742188 C 462.364990234375 962.197021484375 452.967041015625 907.291015625 452.967041015625 888.1630249023438 Z" stroke="none" fill="#161615"/>
    </g>
  </g>
  <g id="Grupo_32" data-name="Grupo 32" transform="translate(-580.655 -834)">
    <g id="Grupo_33" data-name="Grupo 33" transform="translate(0.413 0.403)">
      <path id="Trazado_98" data-name="Trazado 98" d="M597.3,899.613" fill="none" stroke="#707070" stroke-width="1"/>
    </g>
    <g id="Grupo_36" data-name="Grupo 36" transform="translate(0.414 6.403)">
      <g id="Trazado_101" data-name="Trazado 101" fill="#ebebeb" stroke-miterlimit="10">
        <path d="M 722.8759765625 889.4229736328125 L 597.64501953125 889.4229736328125 C 596.4175415039063 889.4229736328125 595.3172607421875 888.6448974609375 594.9070434570313 887.48681640625 C 594.4992065429688 886.3272094726563 594.8670654296875 885.0321655273438 595.8212890625 884.26123046875 L 658.4209594726563 833.74072265625 C 658.9345703125 833.3259887695313 659.5817260742188 833.0974731445313 660.2428588867188 833.0974731445313 C 660.9030151367188 833.0974731445313 661.5499877929688 833.3252563476563 662.0646362304688 833.73876953125 L 678.3759765625 846.9072265625 L 678.3759765625 836 C 678.3759765625 834.3992919921875 679.6782836914063 833.0969848632813 681.2789916992188 833.0969848632813 L 695.7239990234375 833.0969848632813 C 697.32470703125 833.0969848632813 698.6270141601563 834.3992919921875 698.6270141601563 836 L 698.6270141601563 863.2258911132813 L 724.6989135742188 884.2605590820313 C 725.6550903320313 885.0310668945313 726.0227661132813 886.3275146484375 725.6131591796875 887.4860229492188 C 725.2052001953125 888.6439819335938 724.10498046875 889.4229736328125 722.8759765625 889.4229736328125 Z" stroke="none"/>
        <path d="M 722.8759765625 887.9229736328125 C 723.4710083007813 887.9229736328125 724.0009765625 887.5479736328125 724.198974609375 886.9860229492188 C 724.39697265625 886.426025390625 724.219970703125 885.801025390625 723.7570190429688 885.427978515625 L 697.1270141601563 863.9429931640625 L 697.1270141601563 836 C 697.1270141601563 835.2260131835938 696.4979858398438 834.5969848632813 695.7239990234375 834.5969848632813 L 681.2789916992188 834.5969848632813 C 680.5050048828125 834.5969848632813 679.8759765625 835.2260131835938 679.8759765625 836 L 679.8759765625 850.0460205078125 L 661.125 834.9080200195313 C 660.86767578125 834.7012939453125 660.5552368164063 834.5975341796875 660.2428588867188 834.5975341796875 C 659.9312744140625 834.5975341796875 659.6196899414063 834.7007446289063 659.3629760742188 834.9080200195313 L 596.7639770507813 885.427978515625 C 596.301025390625 885.802001953125 596.1240234375 886.426025390625 596.3209838867188 886.9860229492188 C 596.52001953125 887.5479736328125 597.0499877929688 887.9229736328125 597.64501953125 887.9229736328125 L 722.8759765625 887.9229736328125 M 722.8759765625 890.9229736328125 L 597.64501953125 890.9229736328125 C 595.783447265625 890.9229736328125 594.1149291992188 889.7433471679688 593.4931030273438 887.987548828125 L 593.4920654296875 887.9845581054688 L 593.490966796875 887.9815063476563 C 592.8739624023438 886.2274169921875 593.431640625 884.263427734375 594.878662109375 883.0944213867188 L 657.4788818359375 832.573486328125 C 658.2581176757813 831.9442749023438 659.2399291992188 831.5975341796875 660.2428588867188 831.5975341796875 C 661.2435913085938 831.5975341796875 662.2242431640625 831.9427490234375 663.0042724609375 832.569580078125 L 663.0068969726563 832.5716552734375 L 663.0094604492188 832.5737915039063 L 676.8759765625 843.7684326171875 L 676.8759765625 836 C 676.8759765625 833.5721435546875 678.8511352539063 831.5969848632813 681.2789916992188 831.5969848632813 L 695.7239990234375 831.5969848632813 C 698.15185546875 831.5969848632813 700.1270141601563 833.5721435546875 700.1270141601563 836 L 700.1270141601563 862.5087280273438 L 725.6407470703125 883.0931396484375 C 727.0910034179688 884.26171875 727.6488037109375 886.228515625 727.0274047851563 887.986083984375 C 726.4088745117188 889.741455078125 724.7401123046875 890.9229736328125 722.8759765625 890.9229736328125 Z" stroke="none" fill="#ebebeb"/>
      </g>
      <path id="Trazado_102" data-name="Trazado 102" d="M722.887,886.52l-27.153-21.906V836H681.29v16.982L660.255,836l-62.6,50.52Z" fill="none" stroke="#00509c" stroke-linecap="round" stroke-linejoin="round" stroke-width="2.806"/>
    </g>
  </g>
</svg>
