<svg id="disenoAsesoramiento" xmlns="http://www.w3.org/2000/svg" width="160" height="160" viewBox="0 0 160 160">
  <rect id="Rectángulo_157" data-name="Rectángulo 157" width="160" height="160" fill="none"/>
  <g id="muela" transform="translate(-424.967 -841.402)" fill="#ebebeb" stroke-linecap="round" stroke-linejoin="round">
    <path d="M 528.1922607421875 978.1309814453125 C 526.0064086914063 978.1309814453125 523.8875122070313 977.2604370117188 522.0645751953125 975.6134033203125 C 520.1207885742188 973.857177734375 518.6221923828125 971.31689453125 517.7307739257813 968.2671508789063 C 516.70458984375 964.7549438476563 516.473876953125 959.7657470703125 516.2296142578125 954.4835815429688 C 515.9601440429688 948.6570434570313 515.6815185546875 942.6321411132813 514.2771606445313 937.9583129882813 C 512.5570068359375 932.233642578125 509.2638244628906 929.3309936523438 504.489013671875 929.3309936523438 C 499.7145385742188 929.3309936523438 496.4216003417969 932.2335815429688 494.70166015625 937.9581298828125 C 493.2973937988281 942.6318359375 493.0188293457031 948.6566162109375 492.7494201660156 954.4830932617188 C 492.5051574707031 959.7654418945313 492.2744445800781 964.7548217773438 491.2481994628906 968.2672729492188 C 490.35693359375 971.3165283203125 488.8582763671875 973.8567504882813 486.9142456054688 975.6131591796875 C 485.0911254882813 977.2603149414063 482.9722595214844 978.1309814453125 480.7867431640625 978.1309814453125 C 479.1930236816406 978.1309814453125 477.6083984375 977.6724853515625 476.0768432617188 976.7682495117188 C 474.3785400390625 975.7654418945313 472.79443359375 974.2427368164063 471.3684387207031 972.2423095703125 C 468.054443359375 967.5936889648438 463.8465881347656 953.0872192382813 460.1123962402344 933.4375 C 456.7357177734375 915.6691284179688 454.4670104980469 897.4747314453125 454.4670104980469 888.1630249023438 C 454.4670104980469 883.947265625 455.3781433105469 880.1173706054688 457.1751098632813 876.7797241210938 C 458.7231140136719 873.904541015625 460.9218444824219 871.39208984375 463.710205078125 869.312255859375 C 466.0638122558594 867.5567016601563 468.8470153808594 866.12158203125 471.7589111328125 865.1620483398438 C 474.2248229980469 864.3494873046875 476.6998291015625 863.9019775390625 478.7279968261719 863.9019775390625 C 482.5301818847656 863.9019775390625 486.5359191894531 864.8530883789063 490.7768249511719 865.8599853515625 C 495.212158203125 866.9130859375 499.7984924316406 868.0020141601563 504.3720092773438 868.0020141601563 C 508.9430847167969 868.0020141601563 513.5892333984375 866.9136352539063 518.0824584960938 865.8611450195313 C 522.3834228515625 864.8536376953125 526.4459228515625 863.9019775390625 530.2509765625 863.9019775390625 C 532.2791748046875 863.9019775390625 534.754150390625 864.3494873046875 537.2200927734375 865.1620483398438 C 540.1320190429688 866.12158203125 542.9151611328125 867.5567016601563 545.268798828125 869.312255859375 C 548.0571899414063 871.39208984375 550.2559204101563 873.904541015625 551.8038940429688 876.7797241210938 C 553.6008911132813 880.1173706054688 554.5120239257813 883.947265625 554.5120239257813 888.1630249023438 C 554.5120239257813 897.4747314453125 552.2433471679688 915.6691284179688 548.8666381835938 933.4375 C 545.1324462890625 953.0872192382813 540.924560546875 967.5936889648438 537.610595703125 972.2422485351563 C 536.184814453125 974.242431640625 534.6006469726563 975.7650756835938 532.902099609375 976.7679443359375 C 531.3703002929688 977.6724243164063 529.78564453125 978.1309814453125 528.1922607421875 978.1309814453125 Z" stroke="none"/>
    <path d="M 528.1922607421875 976.6309814453125 C 529.5137939453125 976.6309814453125 530.841796875 976.2424926757813 532.1394653320313 975.476318359375 C 533.6561279296875 974.580810546875 535.0859375 973.1997680664063 536.38916015625 971.3715209960938 C 537.5143432617188 969.793212890625 539.385986328125 966.0374145507813 541.9127197265625 957.1074829101563 C 543.76318359375 950.5676879882813 545.6582641601563 942.285888671875 547.3930053710938 933.1574096679688 C 550.75390625 915.4720458984375 553.0120239257813 897.3901977539063 553.0120239257813 888.1630249023438 C 553.0120239257813 884.1981811523438 552.1611938476563 880.6075439453125 550.483154296875 877.4908447265625 C 549.0396728515625 874.8097534179688 546.9835815429688 872.462646484375 544.3719482421875 870.5145874023438 C 539.6370239257813 866.9828491210938 533.8679809570313 865.4019775390625 530.2509765625 865.4019775390625 C 526.6192016601563 865.4019775390625 522.6387329101563 866.3344116210938 518.424560546875 867.3215942382813 C 513.848388671875 868.3935546875 509.1164245605469 869.5020141601563 504.3720092773438 869.5020141601563 C 499.6228942871094 869.5020141601563 494.9496765136719 868.3924560546875 490.4303283691406 867.3193969726563 C 486.2772521972656 866.3333740234375 482.3545532226563 865.4019775390625 478.7279968261719 865.4019775390625 C 475.1110229492188 865.4019775390625 469.3419494628906 866.9828491210938 464.6070556640625 870.5145874023438 C 461.9954223632813 872.462646484375 459.9393310546875 874.8097534179688 458.495849609375 877.4908447265625 C 456.8178405761719 880.6075439453125 455.9670104980469 884.1981811523438 455.9670104980469 888.1630249023438 C 455.9670104980469 897.3901977539063 458.2251281738281 915.4720458984375 461.5859985351563 933.1574096679688 C 463.3207702636719 942.285888671875 465.2158203125 950.5676879882813 467.0662536621094 957.1074829101563 C 469.593017578125 966.0374145507813 471.4646606445313 969.793212890625 472.5899047851563 971.3716430664063 C 473.8932800292969 973.2000732421875 475.3230590820313 974.5811767578125 476.8395080566406 975.4765625 C 478.1369018554688 976.2426147460938 479.4649353027344 976.6309814453125 480.7867126464844 976.6309814453125 C 484.7074279785156 976.6309204101563 488.2486877441406 973.1827392578125 489.8083801269531 967.8466186523438 C 490.7843627929688 964.50634765625 491.0110168457031 959.60400390625 491.2510375976563 954.4137573242188 C 491.524658203125 948.4963989257813 491.8075866699219 942.3775634765625 493.2650756835938 937.5264892578125 C 495.6727600097656 929.5130615234375 500.6976318359375 927.8309936523438 504.489013671875 927.8309936523438 C 508.2806396484375 927.8309936523438 513.3057861328125 929.5131225585938 515.7136840820313 937.526611328125 C 517.17138671875 942.3778686523438 517.454345703125 948.496826171875 517.7279663085938 954.414306640625 C 517.968017578125 959.6043090820313 518.1947021484375 964.5064697265625 519.1705322265625 967.8463134765625 C 520.7303466796875 973.1828002929688 524.2715454101563 976.6309814453125 528.1922607421875 976.6309814453125 M 528.1922607421875 979.6309814453125 C 523.037841796875 979.6309814453125 518.291748046875 975.5331420898438 516.291015625 968.68798828125 C 512.8880004882813 957.041015625 517.8660278320313 930.8309936523438 504.489013671875 930.8309936523438 C 491.1130065917969 930.8309936523438 496.0910034179688 957.041015625 492.68798828125 968.68798828125 C 490.6874389648438 975.5324096679688 485.9405517578125 979.6309814453125 480.7867431640625 979.6309814453125 C 477.1712036132813 979.6310424804688 473.35546875 977.614013671875 470.1470031738281 973.1129760742188 C 462.364990234375 962.197021484375 452.9670104980469 907.291015625 452.9670104980469 888.1630249023438 C 452.9670104980469 869.0360107421875 470.6369934082031 862.4019775390625 478.7279968261719 862.4019775390625 C 486.8190002441406 862.4019775390625 495.7210083007813 866.5020141601563 504.3720092773438 866.5020141601563 C 513.0230102539063 866.5020141601563 522.1589965820313 862.4019775390625 530.2509765625 862.4019775390625 C 538.3419799804688 862.4019775390625 556.0120239257813 869.0360107421875 556.0120239257813 888.1630249023438 C 556.0120239257813 907.291015625 546.614013671875 962.197021484375 538.8319702148438 973.1129760742188 C 535.6240234375 977.6133422851563 531.8073120117188 979.6309814453125 528.1922607421875 979.6309814453125 Z" stroke="none" fill="#161615"/>
  </g>
  <g id="Grupo_37" data-name="Grupo 37" transform="translate(-859.421 -625.895)">
    <g id="Trazado_104" data-name="Trazado 104" fill="#ebebeb" stroke-miterlimit="10">
      <path d="M 915.364990234375 698.260009765625 L 868.0679931640625 698.260009765625 C 867.2664184570313 698.260009765625 866.511962890625 697.955810546875 865.9436645507813 697.4035034179688 C 865.4580688476563 696.9314575195313 865.1282348632813 696.3107299804688 864.9898071289063 695.6083984375 C 864.6705932617188 693.988037109375 865.458984375 692.4417724609375 866.9070434570313 691.84814453125 C 875.5740966796875 688.2984008789063 885.905029296875 681.9437866210938 885.905029296875 671.8280029296875 C 885.905029296875 668.2379760742188 886.6929931640625 664.7564697265625 888.2469482421875 661.4801635742188 C 889.7415771484375 658.3290405273438 891.877685546875 655.502197265625 894.595947265625 653.0782470703125 C 897.3018188476563 650.665283203125 900.44970703125 648.77197265625 903.9522705078125 647.450927734375 C 907.5691528320313 646.0867309570313 911.408935546875 645.39501953125 915.364990234375 645.39501953125 C 919.321044921875 645.39501953125 923.160888671875 646.0867309570313 926.77783203125 647.450927734375 C 930.280517578125 648.77197265625 933.4285888671875 650.665283203125 936.134521484375 653.0781860351563 C 938.8529663085938 655.502197265625 940.9891357421875 658.3289794921875 942.48388671875 661.4801635742188 C 944.0380249023438 664.7564697265625 944.8259887695313 668.2379760742188 944.8259887695313 671.8280029296875 C 944.8259887695313 675.4177856445313 944.0380249023438 678.8991088867188 942.48388671875 682.17529296875 C 940.9891357421875 685.3262939453125 938.8529052734375 688.1530151367188 936.134521484375 690.5769653320313 C 933.4285278320313 692.9898071289063 930.2804565429688 694.883056640625 926.77783203125 696.2041625976563 C 923.160888671875 697.5682983398438 919.321044921875 698.260009765625 915.364990234375 698.260009765625 Z" stroke="none"/>
      <path d="M 915.364990234375 646.89501953125 C 899.9229736328125 646.89501953125 887.405029296875 658.0579833984375 887.405029296875 671.8280029296875 C 887.405029296875 682.8480224609375 876.3829956054688 689.5880126953125 867.4760131835938 693.2360229492188 C 865.77099609375 693.9349975585938 866.25 696.760009765625 868.0679931640625 696.760009765625 L 915.364990234375 696.760009765625 C 930.8070068359375 696.760009765625 943.3259887695313 685.5969848632813 943.3259887695313 671.8280029296875 C 943.3259887695313 658.0579833984375 930.8070068359375 646.89501953125 915.364990234375 646.89501953125 M 915.364990234375 643.89501953125 C 919.5025024414063 643.89501953125 923.5204467773438 644.6192016601563 927.3071899414063 646.0474243164063 C 930.9829711914063 647.4337768554688 934.2887573242188 649.422607421875 937.1328735351563 651.9586181640625 C 940.001708984375 654.5167846679688 942.2579956054688 657.5040283203125 943.839111328125 660.8372802734375 C 945.4892578125 664.3161010742188 946.3259887695313 668.013916015625 946.3259887695313 671.8280029296875 C 946.3259887695313 675.641845703125 945.4892578125 679.3394775390625 943.839111328125 682.8181762695313 C 942.2579956054688 686.1513061523438 940.0016479492188 689.138427734375 937.1328125 691.6964721679688 C 934.2887573242188 694.2324829101563 930.98291015625 696.2213134765625 927.3071899414063 697.6076049804688 C 923.5204467773438 699.0358276367188 919.5025024414063 699.760009765625 915.364990234375 699.760009765625 L 868.0679931640625 699.760009765625 C 865.8370361328125 699.760009765625 863.966064453125 698.1720581054688 863.5181274414063 695.8983764648438 C 863.0584716796875 693.5655517578125 864.2180786132813 691.3292846679688 866.3380737304688 690.460205078125 C 871.5364379882813 688.3311157226563 875.7161865234375 685.8472290039063 878.76220703125 683.0770874023438 C 882.5592651367188 679.6239013671875 884.405029296875 675.9442749023438 884.405029296875 671.8280029296875 C 884.405029296875 668.013916015625 885.2416381835938 664.3161010742188 886.8916625976563 660.8373413085938 C 888.4727172851563 657.5040283203125 890.7288818359375 654.516845703125 893.5975952148438 651.9586791992188 C 896.4415283203125 649.422607421875 899.7472534179688 647.4337768554688 903.4229125976563 646.0474243164063 C 907.2095336914063 644.6192016601563 911.2274780273438 643.89501953125 915.364990234375 643.89501953125 Z" stroke="none" fill="#ebebeb"/>
    </g>
    <g id="Trazado_105" data-name="Trazado 105" fill="#ebebeb" stroke-linecap="round" stroke-linejoin="round">
      <path d="M 915.364990234375 695.260009765625 L 868.0670166015625 695.260009765625 C 868.0469970703125 695.260009765625 868.0387573242188 695.2576904296875 868.0386962890625 695.2576293945313 C 867.9986572265625 695.2316284179688 867.904541015625 695.057861328125 867.9229125976563 694.8475341796875 C 867.9386596679688 694.66748046875 868.010009765625 694.6382446289063 868.0443115234375 694.6242065429688 C 877.5609741210938 690.7265014648438 888.905029296875 683.607666015625 888.905029296875 671.8280029296875 C 888.905029296875 668.6861572265625 889.5955810546875 665.63720703125 890.95751953125 662.7658081054688 C 892.2793579101563 659.9789428710938 894.1752319335938 657.472900390625 896.5925903320313 655.3172607421875 C 899.0222778320313 653.1505737304688 901.8546752929688 651.4483642578125 905.010986328125 650.2578735351563 C 908.2882690429688 649.0217895507813 911.7718505859375 648.39501953125 915.364990234375 648.39501953125 C 918.9581298828125 648.39501953125 922.4417724609375 649.0217895507813 925.7191772460938 650.2578735351563 C 928.8756103515625 651.4483642578125 931.7081298828125 653.150634765625 934.137939453125 655.3173217773438 C 936.555419921875 657.4729614257813 938.451416015625 659.97900390625 939.7733764648438 662.765869140625 C 941.1353759765625 665.6372680664063 941.8259887695313 668.6862182617188 941.8259887695313 671.8280029296875 C 941.8259887695313 674.9695434570313 941.1353759765625 678.018310546875 939.7733764648438 680.8895263671875 C 938.451416015625 683.67626953125 936.555419921875 686.1822509765625 934.137939453125 688.3378295898438 C 931.7081298828125 690.5044555664063 928.8756103515625 692.2066650390625 925.7191772460938 693.3971557617188 C 922.4417724609375 694.6332397460938 918.9581298828125 695.260009765625 915.364990234375 695.260009765625 Z" stroke="none"/>
      <path d="M 915.364990234375 693.760009765625 C 918.7766723632813 693.760009765625 922.0822143554688 693.1657104492188 925.1898193359375 691.99365234375 C 928.1731567382813 690.8684692382813 930.847900390625 689.2617797851563 933.1396484375 687.21826171875 C 937.7738647460938 683.0860595703125 940.3259887695313 677.620361328125 940.3259887695313 671.8280029296875 C 940.3259887695313 666.03515625 937.7738037109375 660.5691528320313 933.1396484375 656.4368286132813 C 930.847900390625 654.393310546875 928.1731567382813 652.7865600585938 925.1898193359375 651.661376953125 C 922.0822143554688 650.4893188476563 918.7766723632813 649.89501953125 915.364990234375 649.89501953125 C 911.9533081054688 649.89501953125 908.6478271484375 650.4893188476563 905.5403442382813 651.661376953125 C 902.55712890625 652.7865600585938 899.8825073242188 654.3932495117188 897.5909423828125 656.4368286132813 C 892.95703125 660.5690307617188 890.405029296875 666.0350952148438 890.405029296875 671.8280029296875 C 890.405029296875 680.5906982421875 884.5994873046875 688.1048583984375 873.5372314453125 693.760009765625 L 915.364990234375 693.760009765625 M 915.364990234375 696.760009765625 L 868.0670166015625 696.760009765625 C 866.25 696.760009765625 865.77099609375 693.9340209960938 867.4760131835938 693.2360229492188 C 876.3829956054688 689.5880126953125 887.405029296875 682.8480224609375 887.405029296875 671.8280029296875 C 887.405029296875 658.0579833984375 899.9229736328125 646.89501953125 915.364990234375 646.89501953125 C 930.8070068359375 646.89501953125 943.3259887695313 658.0579833984375 943.3259887695313 671.8280029296875 C 943.3259887695313 685.5969848632813 930.8070068359375 696.760009765625 915.364990234375 696.760009765625 Z" stroke="none" fill="#00509c"/>
    </g>
    <circle id="Elipse_11" data-name="Elipse 11" cx="3.116" cy="3.116" r="3.116" transform="translate(910.51 668.712)" fill="#00509c"/>
    <circle id="Elipse_12" data-name="Elipse 12" cx="3.116" cy="3.116" r="3.116" transform="translate(920.741 668.712)" fill="#00509c"/>
    <circle id="Elipse_13" data-name="Elipse 13" cx="3.116" cy="3.116" r="3.116" transform="translate(900.28 668.712)" fill="#00509c"/>
  </g>
</svg>
