<svg xmlns="http://www.w3.org/2000/svg" width="48" height="48" viewBox="0 0 48 48"><g transform="translate(48) rotate(90)"><path d="M0,0H48V48H0Z" fill="none"/><g transform="translate(-2 0.334)" fill="none" stroke-linejoin="round"><path d="M26.575,12.726V8.239a2.83,2.83,0,0,1,4.825-2L47.175,22.01a2.81,2.81,0,0,1,0,3.979L31.4,41.763a2.822,2.822,0,0,1-4.825-1.975V35.3H6.822A2.83,2.83,0,0,1,4,32.479V15.548a2.83,2.83,0,0,1,2.822-2.822Z" stroke="none"/><path d="M 29.42923545837402 7.405982971191406 L 29.42924499511719 7.405982971191406 C 29.07451629638672 7.406013488769531 28.57495498657227 7.664524078369141 28.57495498657227 8.239173889160156 L 28.57495498657227 12.72595596313477 C 28.57495498657227 13.83052444458008 27.67952537536621 14.72595596313477 26.57495498657227 14.72595596313477 L 6.821865081787109 14.72595596313477 C 6.376365661621094 14.72595596313477 5.999996185302734 15.10232543945313 5.999996185302734 15.54782485961914 L 5.999996185302734 32.47903442382813 C 5.999996185302734 32.92454528808594 6.376365661621094 33.3009147644043 6.821865081787109 33.3009147644043 L 26.57495498657227 33.3009147644043 C 27.67952537536621 33.3009147644043 28.57495498657227 34.19634246826172 28.57495498657227 35.3009147644043 L 28.57495498657227 39.78768539428711 C 28.57495498657227 40.37918472290039 29.08892631530762 40.59961318969727 29.41289520263672 40.59961318969727 C 29.62984466552734 40.59961318969727 29.81735610961914 40.51756286621094 29.98614501953125 40.34878540039063 L 45.76038360595703 24.57452392578125 C 46.07755661010742 24.25735473632813 46.07755661010742 23.74128532409668 45.76039505004883 23.42411422729492 L 29.98614501953125 7.649856567382813 C 29.82202529907227 7.485744476318359 29.63986587524414 7.405963897705078 29.42923545837402 7.405982971191406 M 29.42909240722656 5.405986785888672 C 30.12177276611328 5.405937194824219 30.82700347900391 5.662296295166016 31.40035629272461 6.235645294189453 L 47.17460632324219 22.0099048614502 C 48.27512359619141 23.11043548583984 48.27512359619141 24.88820457458496 47.17460632324219 25.98873519897461 L 31.40035629272461 41.76299285888672 C 30.82266426086426 42.3406867980957 30.11061477661133 42.59961700439453 29.41289520263672 42.59961700439453 C 27.96345901489258 42.59961700439453 26.57495498657227 41.48305130004883 26.57495498657227 39.78768539428711 L 26.57495498657227 35.3009147644043 L 6.821865081787109 35.3009147644043 C 5.26983642578125 35.3009147644043 3.999996185302734 34.03106689453125 3.999996185302734 32.47903442382813 L 3.999996185302734 15.54782485961914 C 3.999996185302734 13.99579620361328 5.26983642578125 12.72595596313477 6.821865081787109 12.72595596313477 L 26.57495498657227 12.72595596313477 L 26.57495498657227 8.239173889160156 C 26.57495498657227 6.537685394287109 27.97399139404297 5.406089782714844 29.42909240722656 5.405986785888672 Z" stroke="none" fill="#0062cb"/></g></g></svg>