<svg id="Grupo_22" data-name="Grupo 22" xmlns="http://www.w3.org/2000/svg" width="160" height="160" viewBox="0 0 160 160">
  <rect id="Rectángulo_157" data-name="Rectángulo 157" width="160" height="160" fill="none"/>
  <g id="Grupo_21" data-name="Grupo 21" transform="translate(-141.916 -385.836)">
    <path id="Trazado_68" data-name="Trazado 68" d="M218.544,473.537c-15.383,0-9.658,30.143-13.572,43.54S188,534.719,179.05,522.165s-19.761-75.7-19.761-97.7,20.322-29.627,29.628-29.627,19.545,4.715,29.495,4.715,20.455-4.715,29.765-4.715,29.627,7.631,29.627,29.627-10.809,85.148-19.761,97.7-22.009,8.3-25.922-5.089S233.931,473.537,218.544,473.537Z" transform="translate(3.495 3.154)" fill="#ebebeb" stroke="#161615" stroke-linecap="round" stroke-linejoin="round" stroke-width="1"/>
    <g id="Trazado_69" data-name="Trazado 69" transform="translate(0 10.563)" fill="#ebebeb" stroke-linecap="round" stroke-linejoin="round">
      <path d="M 282.6106262207031 429.7052307128906 C 281.1896057128906 429.7052307128906 280.0335388183594 428.5491638183594 280.0335388183594 427.1281433105469 L 280.0335388183594 415.7721862792969 L 162.8351745605469 415.7721862792969 L 162.8351745605469 427.1281433105469 C 162.8351745605469 428.5491638183594 161.6791076660156 429.7052307128906 160.2580871582031 429.7052307128906 C 158.8370666503906 429.7052307128906 157.6809997558594 428.5491638183594 157.6809997558594 427.1281433105469 L 157.6809997558594 399.2619934082031 C 157.6809997558594 397.8409729003906 158.8370666503906 396.6849060058594 160.2580871582031 396.6849060058594 C 161.6791076660156 396.6849060058594 162.8351745605469 397.8409729003906 162.8351745605469 399.2619934082031 L 162.8351745605469 410.6180114746094 L 280.0335388183594 410.6180114746094 L 280.0335388183594 399.2619934082031 C 280.0335388183594 397.8409729003906 281.1896057128906 396.6849060058594 282.6106262207031 396.6849060058594 C 284.0316467285156 396.6849060058594 285.1877136230469 397.8409729003906 285.1877136230469 399.2619934082031 L 285.1877136230469 427.1281433105469 C 285.1877136230469 428.5491638183594 284.0316467285156 429.7052307128906 282.6106262207031 429.7052307128906 Z" stroke="none"/>
      <path d="M 160.2580871582031 397.1849060058594 C 159.1073913574219 397.1849060058594 158.1809997558594 398.1155700683594 158.1809997558594 399.2619934082031 L 158.1809997558594 427.1281433105469 C 158.1809997558594 428.2748107910156 159.1073913574219 429.2052307128906 160.2580871582031 429.2052307128906 C 161.4046325683594 429.2052307128906 162.3351745605469 428.2748107910156 162.3351745605469 427.1281433105469 L 162.3351745605469 415.2721862792969 L 280.5335388183594 415.2721862792969 L 280.5335388183594 427.1281433105469 C 280.5335388183594 428.2748107910156 281.464111328125 429.2052307128906 282.6106262207031 429.2052307128906 C 283.7613220214844 429.2052307128906 284.6877136230469 428.2748107910156 284.6877136230469 427.1281433105469 L 284.6877136230469 399.2619934082031 C 284.6877136230469 398.1155700683594 283.7613220214844 397.1849060058594 282.6106262207031 397.1849060058594 C 281.464111328125 397.1849060058594 280.5335388183594 398.1155700683594 280.5335388183594 399.2619934082031 L 280.5335388183594 411.1180114746094 L 162.3351745605469 411.1180114746094 L 162.3351745605469 399.2619934082031 C 162.3351745605469 398.1155700683594 161.4046325683594 397.1849060058594 160.2580871582031 397.1849060058594 M 160.2580871582031 396.1849060058594 C 161.9548034667969 396.1849060058594 163.3351745605469 397.5652770996094 163.3351745605469 399.2619934082031 L 163.3351745605469 410.1180114746094 L 279.5335388183594 410.1180114746094 L 279.5335388183594 399.2619934082031 C 279.5335388183594 397.5652770996094 280.9139099121094 396.1849060058594 282.6106262207031 396.1849060058594 C 284.3073425292969 396.1849060058594 285.6877136230469 397.5652770996094 285.6877136230469 399.2619934082031 L 285.6877136230469 427.1281433105469 C 285.6877136230469 428.8248596191406 284.3073425292969 430.2052307128906 282.6106262207031 430.2052307128906 C 280.9139099121094 430.2052307128906 279.5335388183594 428.8248596191406 279.5335388183594 427.1281433105469 L 279.5335388183594 416.2721862792969 L 163.3351745605469 416.2721862792969 L 163.3351745605469 427.1281433105469 C 163.3351745605469 428.8248596191406 161.9548034667969 430.2052307128906 160.2580871582031 430.2052307128906 C 158.5613708496094 430.2052307128906 157.1809997558594 428.8248596191406 157.1809997558594 427.1281433105469 L 157.1809997558594 399.2619934082031 C 157.1809997558594 397.5652770996094 158.5613708496094 396.1849060058594 160.2580871582031 396.1849060058594 Z" stroke="none" fill="#161615"/>
    </g>
    <g id="Trazado_70" data-name="Trazado 70" transform="translate(55.349)" fill="#ebebeb" stroke-linecap="round" stroke-linejoin="round">
      <path d="M 205.6721801757813 538.3359985351563 L 177.8060607910156 538.3359985351563 C 176.3850555419922 538.3359985351563 175.2289733886719 537.179931640625 175.2289733886719 535.7589111328125 C 175.2289733886719 534.337890625 176.3850555419922 533.1818237304688 177.8060607910156 533.1818237304688 L 189.1619873046875 533.1818237304688 L 189.1619873046875 398.4901733398438 L 177.8060607910156 398.4901733398438 C 176.3850555419922 398.4901733398438 175.2289733886719 397.3341064453125 175.2289733886719 395.9130859375 C 175.2289733886719 394.4920654296875 176.3850555419922 393.3359985351563 177.8060607910156 393.3359985351563 L 205.6721801757813 393.3359985351563 C 207.0931396484375 393.3359985351563 208.2492065429688 394.4920654296875 208.2492065429688 395.9130859375 C 208.2492065429688 397.3341064453125 207.0931396484375 398.4901733398438 205.6721801757813 398.4901733398438 L 194.316162109375 398.4901733398438 L 194.316162109375 533.1818237304688 L 205.6721801757813 533.1818237304688 C 207.0931396484375 533.1818237304688 208.2492065429688 534.337890625 208.2492065429688 535.7589111328125 C 208.2492065429688 537.179931640625 207.0931396484375 538.3359985351563 205.6721801757813 538.3359985351563 Z" stroke="none"/>
      <path d="M 205.6721954345703 537.8359985351563 C 206.8186950683594 537.8359985351563 207.7492065429688 536.9053955078125 207.7492065429688 535.7589111328125 C 207.7492065429688 534.6122436523438 206.8186950683594 533.6818237304688 205.6721954345703 533.6818237304688 L 193.8161773681641 533.6818237304688 L 193.8161773681641 397.9901733398438 L 205.6721954345703 397.9901733398438 C 206.8186950683594 397.9901733398438 207.7492065429688 397.0638427734375 207.7492065429688 395.9130859375 C 207.7492065429688 394.7665405273438 206.8186950683594 393.8359985351563 205.6721954345703 393.8359985351563 L 177.8060760498047 393.8359985351563 C 176.6595458984375 393.8359985351563 175.7289733886719 394.7665405273438 175.7289733886719 395.9130859375 C 175.7289733886719 397.0638427734375 176.6595458984375 397.9901733398438 177.8060760498047 397.9901733398438 L 189.6619873046875 397.9901733398438 L 189.6619873046875 533.6818237304688 L 177.8060760498047 533.6818237304688 C 176.6595458984375 533.6818237304688 175.7289733886719 534.6122436523438 175.7289733886719 535.7589111328125 C 175.7289733886719 536.9053955078125 176.6595458984375 537.8359985351563 177.8060760498047 537.8359985351563 L 205.6721954345703 537.8359985351563 M 205.6721954345703 538.8359985351563 L 177.8060760498047 538.8359985351563 C 176.1093444824219 538.8359985351563 174.7289733886719 537.4556274414063 174.7289733886719 535.7589111328125 C 174.7289733886719 534.0621948242188 176.1093444824219 532.6818237304688 177.8060760498047 532.6818237304688 L 188.6619873046875 532.6818237304688 L 188.6619873046875 398.9901733398438 L 177.8060760498047 398.9901733398438 C 176.1093444824219 398.9901733398438 174.7289733886719 397.6098022460938 174.7289733886719 395.9130859375 C 174.7289733886719 394.2163696289063 176.1093444824219 392.8359985351563 177.8060760498047 392.8359985351563 L 205.6721954345703 392.8359985351563 C 207.3688659667969 392.8359985351563 208.7492065429688 394.2163696289063 208.7492065429688 395.9130859375 C 208.7492065429688 397.6098022460938 207.3688659667969 398.9901733398438 205.6721954345703 398.9901733398438 L 194.8161773681641 398.9901733398438 L 194.8161773681641 532.6818237304688 L 205.6721954345703 532.6818237304688 C 207.3688659667969 532.6818237304688 208.7492065429688 534.0621948242188 208.7492065429688 535.7589111328125 C 208.7492065429688 537.4556274414063 207.3688659667969 538.8359985351563 205.6721954345703 538.8359985351563 Z" stroke="none" fill="#161615"/>
    </g>
  </g>
</svg>
