<svg xmlns="http://www.w3.org/2000/svg" width="48" height="48" viewBox="0 0 48 48"><rect width="48" height="48" fill="none"/><g transform="translate(2 2)"><path d="M40.02,0H3.98A3.98,3.98,0,0,0,0,3.98V40.02A3.98,3.98,0,0,0,3.98,44H40.02A3.98,3.98,0,0,0,44,40.02V3.98A3.98,3.98,0,0,0,40.02,0Z" transform="translate(0)" fill="#efefef"/><path d="M19.347,3.146c-6.641,0-12.948-.591-15.356,5.591C3,11.291,3.14,14.607,3.14,19.355c0,4.166-.134,8.082.85,10.616,2.4,6.186,8.761,5.593,15.353,5.593,6.359,0,12.916.662,15.355-5.593,1-2.579.85-5.846.85-10.616,0-6.332.349-10.42-2.722-13.489-3.109-3.109-7.314-2.72-13.487-2.72ZM17.895,6.067C31.748,6.045,33.511,4.505,32.538,25.9c-.346,7.567-6.107,6.736-13.189,6.736-12.913,0-13.284-.369-13.284-13.288,0-13.068,1.024-13.273,11.83-13.284ZM28,8.757A1.944,1.944,0,1,0,29.943,10.7,1.944,1.944,0,0,0,28,8.757Zm-8.651,2.273a8.323,8.323,0,1,0,8.32,8.324,8.323,8.323,0,0,0-8.32-8.324Zm0,2.921c7.142,0,7.151,10.806,0,10.806S12.2,13.952,19.347,13.952Z" transform="translate(2.697 2.634)" fill="#0062cb"/></g></svg>