<svg xmlns="http://www.w3.org/2000/svg" width="180.575" height="33.392" viewBox="0 0 180.575 33.392"><g transform="translate(-111.175 -136.309)"><g transform="translate(141.822 145.29)"><path d="M126,141.151h5.766a6.758,6.758,0,0,1,3.474.879,5.973,5.973,0,0,1,2.343,2.554,8.816,8.816,0,0,1,.835,3.984,8.723,8.723,0,0,1-.848,3.984,6,6,0,0,1-2.363,2.554,6.812,6.812,0,0,1-3.486.879H126Zm5.192,12.207a4,4,0,0,0,2.988-1.123,6.7,6.7,0,0,0,0-7.364,4.016,4.016,0,0,0-2.988-1.113h-2.329v9.6Z" transform="translate(-126 -140.113)" fill="#efefef"/><path d="M135.969,153.889a4.933,4.933,0,0,1-1.791-2.14,7.282,7.282,0,0,1,0-5.7,5,5,0,0,1,1.791-2.151,5.168,5.168,0,0,1,2.988-.827,4.836,4.836,0,0,1,3.74,1.5,6.184,6.184,0,0,1,1.39,4.344v.805h-7.673v.17a2.448,2.448,0,0,0,.7,1.748,2.337,2.337,0,0,0,1.759.731,2.461,2.461,0,0,0,1.4-.381,2.151,2.151,0,0,0,.828-1.038h2.882a4.926,4.926,0,0,1-5.044,3.751A5.185,5.185,0,0,1,135.969,153.889Zm5.3-6.072a2.828,2.828,0,0,0-.676-1.971,2.271,2.271,0,0,0-1.676-.636,2.224,2.224,0,0,0-1.736.7,2.869,2.869,0,0,0-.678,1.907Z" transform="translate(-120.181 -138.642)" fill="#efefef"/><path d="M140.34,143.346h2.967v1.717h.148a3.465,3.465,0,0,1,1.229-1.409,3.54,3.54,0,0,1,2.056-.583,3.383,3.383,0,0,1,3.083,1.4,5.744,5.744,0,0,1,.9,3.179v6.887H147.8v-6.4a2.924,2.924,0,0,0-.583-1.928,2.3,2.3,0,0,0-3.338.032,2.988,2.988,0,0,0-.572,1.9v6.4H140.34Z" transform="translate(-115.016 -138.642)" fill="#efefef"/><path d="M151.535,147.1v4.98a5.8,5.8,0,0,0,.074,1.1.863.863,0,0,0,.413.572,2.162,2.162,0,0,0,1.1.212,5.1,5.1,0,0,0,.911-.085v2.034c-.157.028-.434.064-.837.106a11.26,11.26,0,0,1-1.176.064,4.547,4.547,0,0,1-2.3-.456,1.95,1.95,0,0,1-.943-1.144,6.793,6.793,0,0,1-.191-1.77V147.1h-1.865v-2.289h1.886v-3.645h2.924v3.645h2.5V147.1Z" transform="translate(-110.126 -140.103)" fill="#efefef"/><path d="M152.676,153.116a8.2,8.2,0,0,1,.012-8.445,3.854,3.854,0,0,1,3.294-1.6,3.465,3.465,0,0,1,2.227.646,3.975,3.975,0,0,1,1.144,1.367h.168v-1.738h2.947v11.189h-2.947v-1.928h-.168a4.334,4.334,0,0,1-1.187,1.441,3.46,3.46,0,0,1-2.246.657A3.8,3.8,0,0,1,152.676,153.116Zm6.209-1.8a4.491,4.491,0,0,0,.636-2.437,4.439,4.439,0,0,0-.625-2.416,2.292,2.292,0,0,0-3.781,0,4.5,4.5,0,0,0-.615,2.416,4.6,4.6,0,0,0,.615,2.448A2.057,2.057,0,0,0,157,152.332,2.079,2.079,0,0,0,158.885,151.315Z" transform="translate(-106.458 -138.642)" fill="#efefef"/><path d="M160,156.065a1.983,1.983,0,0,1-.931-1.187,7.46,7.46,0,0,1-.18-1.812v-12.5h2.923v11.91a6.476,6.476,0,0,0,.074,1.134.9.9,0,0,0,.426.593,2.124,2.124,0,0,0,1.111.223,4.84,4.84,0,0,0,.593-.042v2.034a15.394,15.394,0,0,1-1.7.127A4.434,4.434,0,0,1,160,156.065Z" transform="translate(-100.805 -140.563)" fill="#efefef"/><path d="M162.539,141.163h6.273a4.818,4.818,0,0,1,2.331.519,3.359,3.359,0,0,1,1.409,1.377,3.938,3.938,0,0,1,.456,1.875,3.081,3.081,0,0,1-2.225,3.115v.127a3.677,3.677,0,0,1,1.324.477,3.543,3.543,0,0,1,1.2,1.166,3.378,3.378,0,0,1,.509,1.9,4.642,4.642,0,0,1-.477,2.045,3.889,3.889,0,0,1-1.5,1.621,4.814,4.814,0,0,1-2.575.636h-6.718Zm5.383,6.167a2.822,2.822,0,0,0,1.621-.466,1.663,1.663,0,0,0,.689-1.483,1.6,1.6,0,0,0-.678-1.441,2.908,2.908,0,0,0-1.632-.445h-2.5v3.836Zm.657,6.336a3.054,3.054,0,0,0,1.717-.487,2.154,2.154,0,0,0,0-3.253,3.007,3.007,0,0,0-1.717-.5h-3.158v4.238Z" transform="translate(-98.011 -140.103)" fill="#efefef"/><path d="M169.715,143.227h2.9v1.78h.148a2.671,2.671,0,0,1,1.017-1.261,3.253,3.253,0,0,1,1.907-.519,2.993,2.993,0,0,1,.763.085L176.327,146a4.148,4.148,0,0,0-1.123-.148,2.53,2.53,0,0,0-1.95.689,3.314,3.314,0,0,0-.636,2.278v5.595h-2.9Z" transform="translate(-92.515 -138.522)" fill="#efefef"/><path d="M174.828,153.116a8.2,8.2,0,0,1,.012-8.445,3.851,3.851,0,0,1,3.294-1.6,3.472,3.472,0,0,1,2.227.646,3.975,3.975,0,0,1,1.144,1.367h.168v-1.738h2.947v11.189h-2.947v-1.928H181.5a4.356,4.356,0,0,1-1.187,1.441,3.463,3.463,0,0,1-2.246.657A3.8,3.8,0,0,1,174.828,153.116Zm6.209-1.8a4.49,4.49,0,0,0,.636-2.437,4.44,4.44,0,0,0-.625-2.416,2.088,2.088,0,0,0-1.9-1,2.062,2.062,0,0,0-1.884,1,4.5,4.5,0,0,0-.616,2.416,4.6,4.6,0,0,0,.616,2.448,2.056,2.056,0,0,0,1.884,1.007A2.08,2.08,0,0,0,181.037,151.315Z" transform="translate(-89.49 -138.642)" fill="#efefef"/><path d="M182.028,153.116a6.944,6.944,0,0,1-1.166-4.2,7.061,7.061,0,0,1,1.166-4.26,3.838,3.838,0,0,1,3.285-1.589,3.505,3.505,0,0,1,2.248.646,4,4,0,0,1,1.144,1.367h.168v-1.738h2.946v15.6h-2.946v-6.336H188.7a4.3,4.3,0,0,1-1.189,1.441,3.419,3.419,0,0,1-2.223.657A3.818,3.818,0,0,1,182.028,153.116Zm6.211-1.759a5.011,5.011,0,0,0,.009-4.864,2.287,2.287,0,0,0-3.783-.011,4.514,4.514,0,0,0-.613,2.416,4.668,4.668,0,0,0,.613,2.458,2.055,2.055,0,0,0,1.888,1.017A2.086,2.086,0,0,0,188.239,151.357Z" transform="translate(-83.976 -138.642)" fill="#efefef"/><path d="M198.258,154.416h-2.946v-1.78h-.148a3.566,3.566,0,0,1-1.2,1.409,3.365,3.365,0,0,1-2,.583,3.25,3.25,0,0,1-3.009-1.409,5.914,5.914,0,0,1-.869-3.168v-6.824h2.924v6.336a3.049,3.049,0,0,0,.551,1.918,1.869,1.869,0,0,0,1.568.71,1.9,1.9,0,0,0,1.644-.742,3.133,3.133,0,0,0,.539-1.886v-6.336h2.946Z" transform="translate(-78.443 -138.522)" fill="#efefef"/><path d="M197,153.889a4.933,4.933,0,0,1-1.791-2.14,7.262,7.262,0,0,1,0-5.7A5,5,0,0,1,197,143.9a5.168,5.168,0,0,1,2.988-.827,4.841,4.841,0,0,1,3.74,1.5,6.184,6.184,0,0,1,1.388,4.344v.805h-7.671v.17a2.441,2.441,0,0,0,.7,1.748,2.332,2.332,0,0,0,1.759.731,2.465,2.465,0,0,0,1.4-.381,2.162,2.162,0,0,0,.828-1.038h2.88a4.925,4.925,0,0,1-5.044,3.751A5.179,5.179,0,0,1,197,153.889Zm5.3-6.072a2.82,2.82,0,0,0-.678-1.971,2.263,2.263,0,0,0-1.674-.636,2.231,2.231,0,0,0-1.738.7,2.877,2.877,0,0,0-.676,1.907Z" transform="translate(-73.433 -138.642)" fill="#efefef"/><path d="M205.833,147.1v4.98a5.961,5.961,0,0,0,.074,1.1.863.863,0,0,0,.413.572,2.161,2.161,0,0,0,1.1.212,5.088,5.088,0,0,0,.911-.085v2.034q-.233.042-.837.106a11.234,11.234,0,0,1-1.176.064,4.547,4.547,0,0,1-2.3-.456,1.956,1.956,0,0,1-.943-1.144,6.792,6.792,0,0,1-.191-1.77V147.1h-1.865v-2.289h1.886v-3.645h2.924v3.645h2.5V147.1Z" transform="translate(-68.534 -140.103)" fill="#efefef"/><path d="M207.932,154.176a3.826,3.826,0,0,1-1.556-1.388,3.382,3.382,0,0,1-.532-1.812v-.127h2.861v.127a1.4,1.4,0,0,0,.445,1.017,1.751,1.751,0,0,0,1.293.445,1.83,1.83,0,0,0,1.134-.328,1.068,1.068,0,0,0,.434-.9.964.964,0,0,0-.38-.805,2.007,2.007,0,0,0-.954-.381l-1.273-.254a5.354,5.354,0,0,1-2.266-1,2.7,2.7,0,0,1-1.019-2.31,2.968,2.968,0,0,1,1.167-2.49,4.742,4.742,0,0,1,2.988-.9,5.12,5.12,0,0,1,2.31.487,3.634,3.634,0,0,1,1.482,1.282,3.11,3.11,0,0,1,.51,1.706v.085h-2.863v-.064a1.4,1.4,0,0,0-.38-.943,1.474,1.474,0,0,0-1.167-.434,1.59,1.59,0,0,0-1.06.339,1.113,1.113,0,0,0-.4.89.94.94,0,0,0,.413.805,2.452,2.452,0,0,0,1.028.4l1.4.275a5.307,5.307,0,0,1,2.291,1.07,2.694,2.694,0,0,1,.931,2.193,3.125,3.125,0,0,1-.572,1.865,3.665,3.665,0,0,1-1.579,1.24,5.583,5.583,0,0,1-2.234.434A5.287,5.287,0,0,1,207.932,154.176Z" transform="translate(-64.839 -138.642)" fill="#efefef"/></g><g transform="translate(111.464 136.309)"><path d="M123.488,140.458H107.732v4.059h-2.148v-6.209h20.052v6.209h-2.148Z" transform="translate(-105.584 -138.309)" fill="#efefef"/></g><g transform="translate(111.464 146.288)"><path d="M106.027,144.442a7.053,7.053,0,0,0,2.362,1.648,16.235,16.235,0,0,0,3.427,1.144,15.688,15.688,0,0,0,7.126,0,15.991,15.991,0,0,0,3.417-1.144,7.069,7.069,0,0,0,2.353-1.648l.7.662a7.365,7.365,0,0,1-2.226,2.608,12.007,12.007,0,0,1-3.563,1.834,13.713,13.713,0,0,1-8.435.021,11.758,11.758,0,0,1-3.553-1.826,7.921,7.921,0,0,1-2.294-2.655Z" transform="translate(-105.344 -144.442)" fill="#efefef"/></g><g transform="translate(111.464 152.169)"><g transform="translate(0 0)"><path d="M115.481,151.781c2.457,0,3.086,4.443,3.246,6.339.187,2.244,1.323,5.358,1.6,5.358s.262-.215.87-2.288c.2-.669.434-1.476.742-2.442a41.564,41.564,0,0,0,1.594-7.478c.14-1.15.27-2.227.467-3.213l1.381.342c-.182.973-.3,2.035-.433,3.169a39.39,39.39,0,0,1-1.474,7.828c-.3.947-.534,1.739-.727,2.4-.672,2.286-1.043,3.547-2.506,3.547-2.362,0-3.137-6.969-3.142-7.039-.1-1.147-.553-4.639-1.617-4.639s-1.52,3.492-1.616,4.639c-.007.07-.779,7.039-3.142,7.039-1.464,0-1.834-1.261-2.506-3.547-.194-.657-.426-1.45-.727-2.4a39.521,39.521,0,0,1-1.476-7.828c-.129-1.134-.249-2.2-.431-3.169l1.381-.342c.2.986.327,2.063.467,3.213a41.564,41.564,0,0,0,1.594,7.478c.308.966.545,1.773.742,2.442.609,2.073.6,2.288.87,2.288s1.409-3.114,1.6-5.358C112.4,156.225,113.026,151.781,115.481,151.781Z" transform="translate(-105.584 -148.057)" fill="#efefef" stroke="#efefef" stroke-width="0.5"/></g></g></g></svg>