<svg xmlns="http://www.w3.org/2000/svg" width="35" height="35" viewBox="0 0 35 35"><rect width="35" height="35" fill="none"/><g transform="translate(1.464 1.464)"><path d="M0,0H32.214V32.214H0Z" fill="none"/><path d="M4.79,27.476H33.424a1.79,1.79,0,0,0,0-3.579H4.79a1.79,1.79,0,0,0,0,3.579Zm0-8.948H33.424a1.79,1.79,0,0,0,0-3.579H4.79a1.79,1.79,0,1,0,0,3.579ZM3,7.79a1.8,1.8,0,0,0,1.79,1.79H33.424a1.79,1.79,0,0,0,0-3.579H4.79A1.8,1.8,0,0,0,3,7.79Z" transform="translate(-3 -0.631)" fill="#efefef"/></g></svg>