<svg id="principalPublicidad" xmlns="http://www.w3.org/2000/svg" width="160" height="160" viewBox="0 0 160 160">
  <rect id="Rectángulo_157" data-name="Rectángulo 157" width="160" height="160" fill="none"/>
  <g id="Grupo_27" data-name="Grupo 27" transform="translate(-424.967 -625.367)">
    <g id="Trazado_84" data-name="Trazado 84" fill="#ebebeb" stroke-linecap="round" stroke-linejoin="round">
      <path d="M 528.1922607421875 762.6240234375 C 526.0064086914063 762.6240234375 523.8875122070313 761.7534790039063 522.0645751953125 760.1064453125 C 520.1207885742188 758.3502197265625 518.6221923828125 755.8099365234375 517.7307739257813 752.7601928710938 C 516.70458984375 749.2479858398438 516.473876953125 744.2587890625 516.2296142578125 738.9766235351563 C 515.9601440429688 733.1500244140625 515.6815185546875 727.1251220703125 514.2771606445313 722.4512939453125 C 512.5570068359375 716.7266235351563 509.2638244628906 713.823974609375 504.489013671875 713.823974609375 C 499.7145385742188 713.823974609375 496.4216003417969 716.7265625 494.70166015625 722.4511108398438 C 493.2973937988281 727.1248168945313 493.0188293457031 733.149658203125 492.7494201660156 738.97607421875 C 492.5051574707031 744.2584228515625 492.2744445800781 749.2478637695313 491.2481994628906 752.7603759765625 C 490.35693359375 755.8095703125 488.8582763671875 758.3497314453125 486.9142456054688 760.1061401367188 C 485.0911254882813 761.7533569335938 482.9722900390625 762.6240234375 480.7867431640625 762.6240234375 C 479.1930541992188 762.6240234375 477.6084289550781 762.16552734375 476.0768737792969 761.26123046875 C 474.3785400390625 760.2584838867188 472.79443359375 758.7357788085938 471.3684387207031 756.7353515625 C 468.054443359375 752.0867309570313 463.8465881347656 737.5802612304688 460.1123962402344 717.9304809570313 C 456.7357177734375 700.162109375 454.4670104980469 681.9677124023438 454.4670104980469 672.656005859375 C 454.4670104980469 668.4402465820313 455.3781433105469 664.6103515625 457.1751098632813 661.272705078125 C 458.7231140136719 658.3975219726563 460.9218444824219 655.8850708007813 463.710205078125 653.8052368164063 C 466.0638122558594 652.0497436523438 468.8470153808594 650.6146240234375 471.7589111328125 649.6550903320313 C 474.2248229980469 648.842529296875 476.6998291015625 648.39501953125 478.7279968261719 648.39501953125 C 482.5302124023438 648.39501953125 486.5359191894531 649.3460693359375 490.7768249511719 650.35302734375 C 495.212158203125 651.4060668945313 499.7985229492188 652.4949951171875 504.3720092773438 652.4949951171875 C 508.9430847167969 652.4949951171875 513.5892333984375 651.4066772460938 518.0824584960938 650.3541259765625 C 522.3834228515625 649.3466186523438 526.4459228515625 648.39501953125 530.2509765625 648.39501953125 C 532.2791748046875 648.39501953125 534.754150390625 648.842529296875 537.2200927734375 649.6550903320313 C 540.1320190429688 650.6146240234375 542.9152221679688 652.0497436523438 545.268798828125 653.8052368164063 C 548.0571899414063 655.8850708007813 550.2559204101563 658.3975219726563 551.8038940429688 661.272705078125 C 553.6008911132813 664.6103515625 554.5120239257813 668.4402465820313 554.5120239257813 672.656005859375 C 554.5120239257813 681.9677124023438 552.2433471679688 700.162109375 548.8666381835938 717.9304809570313 C 545.1324462890625 737.5802612304688 540.924560546875 752.0867309570313 537.610595703125 756.7352905273438 C 536.184814453125 758.7354736328125 534.6006469726563 760.2581176757813 532.902099609375 761.260986328125 C 531.3703002929688 762.1654052734375 529.78564453125 762.6240234375 528.1922607421875 762.6240234375 Z" stroke="none"/>
      <path d="M 528.1922607421875 761.1240234375 C 529.5137939453125 761.1240234375 530.841796875 760.7355346679688 532.1394653320313 759.9692993164063 C 533.6561279296875 759.0737915039063 535.0859375 757.6928100585938 536.38916015625 755.8645629882813 C 537.5143432617188 754.2862548828125 539.385986328125 750.5303955078125 541.9127197265625 741.6004638671875 C 543.76318359375 735.0606689453125 545.6582641601563 726.7788696289063 547.3930053710938 717.650390625 C 550.75390625 699.9650268554688 553.0120239257813 681.8831787109375 553.0120239257813 672.656005859375 C 553.0120239257813 668.691162109375 552.1611938476563 665.1005249023438 550.483154296875 661.9838256835938 C 549.0396728515625 659.302734375 546.9835815429688 656.9556274414063 544.3719482421875 655.0076293945313 C 539.6370239257813 651.4758911132813 533.8679809570313 649.89501953125 530.2509765625 649.89501953125 C 526.6192016601563 649.89501953125 522.6387329101563 650.8274536132813 518.424560546875 651.8145751953125 C 513.848388671875 652.8865356445313 509.1164245605469 653.9949951171875 504.3720092773438 653.9949951171875 C 499.6228942871094 653.9949951171875 494.9496765136719 652.8854370117188 490.4303283691406 651.8124389648438 C 486.2772827148438 650.8263549804688 482.3545532226563 649.89501953125 478.7279968261719 649.89501953125 C 475.1110229492188 649.89501953125 469.3419494628906 651.4758911132813 464.6070556640625 655.0076293945313 C 461.9954223632813 656.9556274414063 459.9393310546875 659.302734375 458.495849609375 661.9838256835938 C 456.8178405761719 665.1005249023438 455.9670104980469 668.691162109375 455.9670104980469 672.656005859375 C 455.9670104980469 681.8831787109375 458.2251281738281 699.9650268554688 461.5859985351563 717.650390625 C 463.3207702636719 726.7788696289063 465.2158203125 735.0606689453125 467.0662536621094 741.6004638671875 C 469.593017578125 750.5303955078125 471.4646606445313 754.2862548828125 472.5898742675781 755.8646850585938 C 473.8932800292969 757.693115234375 475.3230590820313 759.07421875 476.8395080566406 759.9695434570313 C 478.1369323730469 760.735595703125 479.4649658203125 761.1240234375 480.7867431640625 761.1240234375 C 484.7074584960938 761.1239624023438 488.2486877441406 757.6758422851563 489.8083801269531 752.3396606445313 C 490.7843627929688 748.9993896484375 491.0110168457031 744.0969848632813 491.2510375976563 738.9067993164063 C 491.524658203125 732.9893798828125 491.8075866699219 726.8705444335938 493.2650756835938 722.0194702148438 C 495.6727600097656 714.0060424804688 500.6976318359375 712.323974609375 504.489013671875 712.323974609375 C 508.2806396484375 712.323974609375 513.3057861328125 714.006103515625 515.7136840820313 722.0195922851563 C 517.17138671875 726.870849609375 517.454345703125 732.9898071289063 517.7279663085938 738.9072875976563 C 517.968017578125 744.0972900390625 518.1947021484375 748.99951171875 519.1705322265625 752.33935546875 C 520.7303466796875 757.6758422851563 524.2715454101563 761.1240234375 528.1922607421875 761.1240234375 M 528.1922607421875 764.1240234375 C 523.037841796875 764.1240234375 518.291748046875 760.0261840820313 516.291015625 753.1810302734375 C 512.8880004882813 741.5339965820313 517.8660278320313 715.323974609375 504.489013671875 715.323974609375 C 491.1130065917969 715.323974609375 496.0910034179688 741.5339965820313 492.68798828125 753.1810302734375 C 490.6874389648438 760.0254516601563 485.9405517578125 764.1239624023438 480.7867431640625 764.1240234375 C 477.1712341308594 764.1240234375 473.35546875 762.1069946289063 470.1470031738281 757.6060180664063 C 462.364990234375 746.6900024414063 452.9670104980469 691.7839965820313 452.9670104980469 672.656005859375 C 452.9670104980469 653.5289916992188 470.6369934082031 646.89501953125 478.7279968261719 646.89501953125 C 486.8190002441406 646.89501953125 495.7210083007813 650.9949951171875 504.3720092773438 650.9949951171875 C 513.0230102539063 650.9949951171875 522.1589965820313 646.89501953125 530.2509765625 646.89501953125 C 538.3419799804688 646.89501953125 556.0120239257813 653.5289916992188 556.0120239257813 672.656005859375 C 556.0120239257813 691.7839965820313 546.614013671875 746.6900024414063 538.8319702148438 757.6060180664063 C 535.6240234375 762.1063232421875 531.8073120117188 764.1240234375 528.1922607421875 764.1240234375 Z" stroke="none" fill="#161615"/>
    </g>
    <g id="Grupo_26" data-name="Grupo 26">
      <g id="Trazado_85" data-name="Trazado 85" fill="#ebebeb" stroke-miterlimit="10">
        <path d="M 550.1380004882813 729.7360229492188 L 533.1959838867188 729.7360229492188 C 531.5418090820313 729.7360229492188 530.1959838867188 728.3902587890625 530.1959838867188 726.7360229492188 L 530.1959838867188 690.3209838867188 L 513.406982421875 690.3209838867188 C 512.3121337890625 690.3209838867188 511.3048400878906 689.72509765625 510.7781677246094 688.7659301757813 C 510.2506103515625 687.8068237304688 510.2871704101563 686.63671875 510.8741149902344 685.7133178710938 L 539.134765625 641.2138671875 C 539.6701049804688 640.37060546875 540.6171264648438 639.8670043945313 541.6679077148438 639.8670043945313 C 542.7191162109375 639.8670043945313 543.6660766601563 640.3709716796875 544.2010498046875 641.215087890625 L 572.460205078125 685.7138671875 C 573.047119140625 686.63720703125 573.0841064453125 687.8072509765625 572.5563354492188 688.766845703125 C 572.02783203125 689.7258911132813 571.0209350585938 690.3209838867188 569.927978515625 690.3209838867188 L 553.1380004882813 690.3209838867188 L 553.1380004882813 726.7360229492188 C 553.1380004882813 728.3902587890625 551.7921752929688 729.7360229492188 550.1380004882813 729.7360229492188 Z" stroke="none"/>
        <path d="M 550.1380004882813 728.2360229492188 C 550.9669799804688 728.2360229492188 551.6380004882813 727.5640258789063 551.6380004882813 726.7360229492188 L 551.6380004882813 688.8209838867188 L 569.927978515625 688.8209838867188 C 570.4739990234375 688.8209838867188 570.97802734375 688.5230102539063 571.2420043945313 688.0440063476563 C 571.5059814453125 687.5640258789063 571.4869995117188 686.97900390625 571.1939697265625 686.5180053710938 L 542.9340209960938 642.0180053710938 C 542.6589965820313 641.5840454101563 542.1635131835938 641.3670043945313 541.6679077148438 641.3670043945313 C 541.1722412109375 641.3670043945313 540.676513671875 641.5840454101563 540.4010009765625 642.0180053710938 L 512.1400146484375 686.5180053710938 C 511.8469848632813 686.97900390625 511.8290100097656 687.5640258789063 512.093017578125 688.0440063476563 C 512.3560180664063 688.5230102539063 512.8599853515625 688.8209838867188 513.406982421875 688.8209838867188 L 531.6959838867188 688.8209838867188 L 531.6959838867188 726.7360229492188 C 531.6959838867188 727.5640258789063 532.3679809570313 728.2360229492188 533.1959838867188 728.2360229492188 L 550.1380004882813 728.2360229492188 M 550.1380004882813 731.2360229492188 L 533.1959838867188 731.2360229492188 C 530.7146606445313 731.2360229492188 528.6959838867188 729.2173461914063 528.6959838867188 726.7360229492188 L 528.6959838867188 691.8209838867188 L 513.406982421875 691.8209838867188 C 511.7646179199219 691.8209838867188 510.2535095214844 690.927001953125 509.4633483886719 689.4878540039063 C 508.6723022460938 688.0498046875 508.7273864746094 686.29443359375 509.6081848144531 684.9087524414063 L 537.8685302734375 640.4097290039063 C 538.680419921875 639.1307983398438 540.1008911132813 638.3670043945313 541.6679077148438 638.3670043945313 C 543.2359008789063 638.3670043945313 544.656494140625 639.131591796875 545.468017578125 640.4121704101563 L 573.7264404296875 684.9097290039063 C 574.6068725585938 686.2947998046875 574.6624145507813 688.0501708984375 573.8706665039063 689.48974609375 C 573.0776977539063 690.9285888671875 571.5674438476563 691.8209838867188 569.927978515625 691.8209838867188 L 554.6380004882813 691.8209838867188 L 554.6380004882813 726.7360229492188 C 554.6380004882813 729.2173461914063 552.6193237304688 731.2360229492188 550.1380004882813 731.2360229492188 Z" stroke="none" fill="#ebebeb"/>
      </g>
      <path id="Trazado_86" data-name="Trazado 86" d="M533.2,687.321H513.407l28.26-44.5,28.26,44.5H550.138v39.414H533.2Z" fill="#ebebeb" stroke="#00509c" stroke-linecap="round" stroke-linejoin="round" stroke-width="3"/>
    </g>
  </g>
</svg>
