<svg id="principalPosicionamiento" xmlns="http://www.w3.org/2000/svg" width="160" height="160" viewBox="0 0 160 160">
  <rect id="Rectángulo_157" data-name="Rectángulo 157" width="160" height="160" fill="none"/>
  <g id="Grupo_24" data-name="Grupo 24" transform="translate(-423.967 -474.918)">
    <g id="Trazado_78" data-name="Trazado 78" fill="#ebebeb" stroke-linecap="round" stroke-linejoin="round">
      <path d="M 528.1922607421875 611.646484375 C 526.0064086914063 611.646484375 523.8875122070313 610.77587890625 522.0646362304688 609.12890625 C 520.1207885742188 607.3726196289063 518.6221923828125 604.8321533203125 517.7307739257813 601.7822265625 C 516.70458984375 598.270263671875 516.473876953125 593.2811889648438 516.2296142578125 587.9992065429688 C 515.9601440429688 582.1727905273438 515.6815185546875 576.1480102539063 514.2771606445313 571.4742431640625 C 512.5570068359375 565.7496337890625 509.2638244628906 562.8469848632813 504.489013671875 562.8469848632813 C 499.7145690917969 562.8469848632813 496.421630859375 565.7495727539063 494.70166015625 571.4740600585938 C 493.2974243164063 576.147705078125 493.0188293457031 582.17236328125 492.7494201660156 587.9987182617188 C 492.5051574707031 593.2808837890625 492.2744750976563 598.2701416015625 491.2481994628906 601.7822875976563 C 490.35693359375 604.831787109375 488.8582763671875 607.3721313476563 486.9142150878906 609.1286010742188 C 485.0911254882813 610.7758178710938 482.9722595214844 611.646484375 480.7866821289063 611.646484375 C 479.1929931640625 611.646484375 477.6083374023438 611.1880493164063 476.0768127441406 610.2838134765625 C 474.3785095214844 609.2811279296875 472.7943725585938 607.758544921875 471.368408203125 605.75830078125 C 468.0544738769531 601.1097412109375 463.8465881347656 586.6031494140625 460.1123962402344 566.953125 C 456.7357177734375 549.1846313476563 454.4670104980469 530.9903564453125 454.4670104980469 521.6790161132813 C 454.4670104980469 517.4632568359375 455.3781433105469 513.6333618164063 457.1751098632813 510.2957458496094 C 458.7231140136719 507.4205322265625 460.9218444824219 504.9080810546875 463.710205078125 502.8282470703125 C 466.0638122558594 501.0726928710938 468.8470153808594 499.6376037597656 471.7589111328125 498.6780700683594 C 474.2248229980469 497.8655090332031 476.6998291015625 497.4179992675781 478.7279968261719 497.4179992675781 C 482.5302429199219 497.4179992675781 486.5359802246094 498.3688659667969 490.7769165039063 499.3755187988281 C 495.2122497558594 500.4283447265625 499.7985534667969 501.5169982910156 504.3720092773438 501.5169982910156 C 508.9430236816406 501.5169982910156 513.5891723632813 500.4289245605469 518.0823974609375 499.3766479492188 C 522.3833618164063 498.3694152832031 526.4458618164063 497.4179992675781 530.2509765625 497.4179992675781 C 532.2791748046875 497.4179992675781 534.754150390625 497.8655090332031 537.2200927734375 498.6780700683594 C 540.1320190429688 499.6376037597656 542.9151611328125 501.0726928710938 545.268798828125 502.8282470703125 C 548.0571899414063 504.9080810546875 550.2559204101563 507.4205322265625 551.8038940429688 510.2957458496094 C 553.6008911132813 513.6333618164063 554.5120239257813 517.4632568359375 554.5120239257813 521.6790161132813 C 554.5120239257813 530.9903564453125 552.2433471679688 549.1846313476563 548.8666381835938 566.953125 C 545.1323852539063 586.6031494140625 540.9244995117188 601.1097412109375 537.610595703125 605.75830078125 C 536.184814453125 607.7582397460938 534.6007080078125 609.28076171875 532.9021606445313 610.2835693359375 C 531.370361328125 611.1879272460938 529.7857055664063 611.646484375 528.1922607421875 611.646484375 Z" stroke="none"/>
      <path d="M 528.1923217773438 610.146484375 C 529.5138549804688 610.146484375 530.8419189453125 609.7579956054688 532.1395874023438 608.9918212890625 C 533.65625 608.096435546875 535.0859985351563 606.7155151367188 536.38916015625 604.8875732421875 C 537.5143432617188 603.3092651367188 539.385986328125 599.5534057617188 541.9127197265625 590.6233520507813 C 543.76318359375 584.08349609375 545.6582641601563 575.8016357421875 547.3930053710938 566.673095703125 C 550.75390625 548.987548828125 553.0120239257813 530.9058227539063 553.0120239257813 521.6790161132813 C 553.0120239257813 517.7141723632813 552.1611938476563 514.12353515625 550.483154296875 511.0068054199219 C 549.0396728515625 508.3257446289063 546.9835815429688 505.9786071777344 544.3719482421875 504.0306091308594 C 539.6370239257813 500.4988403320313 533.8679809570313 498.9179992675781 530.2509765625 498.9179992675781 C 526.619140625 498.9179992675781 522.6386108398438 499.8501892089844 518.4243774414063 500.8371276855469 C 513.8482666015625 501.9088134765625 509.1163330078125 503.0169982910156 504.3720092773438 503.0169982910156 C 499.6229858398438 503.0169982910156 494.9497985839844 501.90771484375 490.4304809570313 500.8349609375 C 486.2774047851563 499.8491516113281 482.3546142578125 498.9179992675781 478.7279968261719 498.9179992675781 C 475.1110229492188 498.9179992675781 469.3419494628906 500.4988403320313 464.6070556640625 504.0306091308594 C 461.9954223632813 505.9786071777344 459.9393310546875 508.3257446289063 458.495849609375 511.0068054199219 C 456.8178405761719 514.12353515625 455.9670104980469 517.7141723632813 455.9670104980469 521.6790161132813 C 455.9670104980469 530.9058227539063 458.2251281738281 548.987548828125 461.5859985351563 566.673095703125 C 463.3207702636719 575.8016357421875 465.2158203125 584.08349609375 467.0662536621094 590.6233520507813 C 469.593017578125 599.5534057617188 471.4646606445313 603.3092651367188 472.5898132324219 604.8875732421875 C 473.8932189941406 606.7158813476563 475.3229675292969 608.0968017578125 476.8393859863281 608.9921264648438 C 478.1368408203125 609.7581176757813 479.4648742675781 610.146484375 480.7866516113281 610.146484375 C 484.7074584960938 610.1464233398438 488.2487182617188 606.6980590820313 489.8084106445313 601.361572265625 C 490.7843627929688 598.0216064453125 491.0110473632813 593.1194458007813 491.2510375976563 587.9293823242188 C 491.524658203125 582.0121459960938 491.8075866699219 575.8934326171875 493.2651062011719 571.0424194335938 C 495.6727600097656 563.029052734375 500.6976623535156 561.3469848632813 504.489013671875 561.3469848632813 C 508.2806091308594 561.3469848632813 513.3057861328125 563.029052734375 515.7136840820313 571.0425415039063 C 517.17138671875 575.8936767578125 517.454345703125 582.0125122070313 517.7279663085938 587.929931640625 C 517.9679565429688 593.1197509765625 518.1947021484375 598.021728515625 519.1705322265625 601.3613891601563 C 520.7302856445313 606.6981201171875 524.2715454101563 610.146484375 528.1923217773438 610.146484375 M 528.1923217773438 613.146484375 C 523.0379028320313 613.146484375 518.291748046875 609.0487060546875 516.291015625 602.2030029296875 C 512.8880004882813 590.5570068359375 517.8660278320313 564.3469848632813 504.489013671875 564.3469848632813 C 491.1130065917969 564.3469848632813 496.0910034179688 590.5570068359375 492.68798828125 602.2030029296875 C 490.6874389648438 609.0480346679688 485.9404907226563 613.1464233398438 480.7867126464844 613.146484375 C 477.1711730957031 613.1465454101563 473.35546875 611.1295776367188 470.1470031738281 606.6290283203125 C 462.364990234375 595.7130126953125 452.9670104980469 540.8060302734375 452.9670104980469 521.6790161132813 C 452.9670104980469 502.552001953125 470.6369934082031 495.9179992675781 478.7279968261719 495.9179992675781 C 486.8190002441406 495.9179992675781 495.7210083007813 500.0169982910156 504.3720092773438 500.0169982910156 C 513.0230102539063 500.0169982910156 522.1589965820313 495.9179992675781 530.2509765625 495.9179992675781 C 538.3419799804688 495.9179992675781 556.0120239257813 502.552001953125 556.0120239257813 521.6790161132813 C 556.0120239257813 540.8060302734375 546.614013671875 595.7130126953125 538.8319702148438 606.6290283203125 C 535.6240234375 611.12890625 531.807373046875 613.146484375 528.1923217773438 613.146484375 Z" stroke="none" fill="#161615"/>
    </g>
    <g id="Grupo_23" data-name="Grupo 23">
      <g id="Trazado_79" data-name="Trazado 79" fill="#ebebeb" stroke-miterlimit="10">
        <path d="M 472.4630126953125 600.3109741210938 C 469.7330627441406 600.3109741210938 467.16943359375 599.2507934570313 465.2443237304688 597.32568359375 C 463.3185729980469 595.39990234375 462.2579956054688 592.8361206054688 462.2579956054688 590.1066284179688 C 462.2579956054688 587.3770141601563 463.318603515625 584.8134765625 465.2444763183594 582.88818359375 L 484.2283325195313 563.9033813476563 C 486.6062927246094 561.5139770507813 489.1780700683594 559.2571411132813 491.8547668457031 558.9422607421875 L 491.8601379394531 558.941650390625 L 491.8655090332031 558.9410400390625 L 492.4635009765625 558.8750610351563 L 492.4664001464844 558.874755859375 L 492.4693298339844 558.8744506835938 C 493.9520568847656 558.7167358398438 494.3992919921875 558.669189453125 495.97607421875 557.0916137695313 C 496.5863647460938 556.4818115234375 496.7452087402344 555.7454223632813 496.5432739257813 554.464599609375 C 496.403076171875 553.5726928710938 496.2547302246094 553.26953125 495.9296875 552.6052856445313 L 495.9275512695313 552.6009521484375 L 495.9254455566406 552.5965576171875 L 495.8639831542969 552.4692993164063 C 495.7787475585938 552.2931518554688 495.6821594238281 552.093505859375 495.5840454101563 551.8753662109375 C 494.5750732421875 549.6377563476563 493.9452514648438 547.2139892578125 493.7125854492188 544.6727294921875 C 493.4869079589844 542.2077026367188 493.6392211914063 539.6879272460938 494.165283203125 537.1834106445313 C 494.6899719238281 534.6854858398438 495.5726928710938 532.2682495117188 496.7889404296875 529.9988403320313 C 498.0364990234375 527.6708984375 499.607177734375 525.552490234375 501.4573364257813 523.7023315429688 C 506.3734741210938 518.7850952148438 512.9417114257813 516.0770263671875 519.9520263671875 516.0770263671875 C 520.0081787109375 516.0770263671875 520.0632934570313 516.0770874023438 520.1203002929688 516.0780639648438 C 527.1553955078125 516.1210327148438 533.7639770507813 518.8777465820313 538.7285766601563 523.8411865234375 C 549.0421752929688 534.1548461914063 549.1041259765625 550.8751220703125 538.8667602539063 561.1135864257813 C 536.36376953125 563.6173095703125 533.4198608398438 565.5790405273438 530.116943359375 566.9442138671875 C 526.9268798828125 568.2627563476563 523.4698486328125 568.9597778320313 520.1204223632813 568.9597778320313 C 520.1198120117188 568.9597778320313 520.1197509765625 568.9597778320313 520.119140625 568.9597778320313 C 516.768798828125 568.9595947265625 513.5980834960938 568.2952270507813 510.6950378417969 566.9852294921875 C 510.4551696777344 566.8768310546875 510.2381896972656 566.7717895507813 510.0467529296875 566.6791381835938 L 509.97314453125 566.6434936523438 L 509.969482421875 566.6417236328125 L 509.9658508300781 566.6399536132813 C 509.3236694335938 566.3251953125 509.0013122558594 566.167236328125 508.1049499511719 566.025634765625 C 507.7484130859375 565.969482421875 507.4572143554688 565.9432373046875 507.1892395019531 565.9432373046875 C 506.4542846679688 565.9432373046875 505.9265441894531 566.1434326171875 505.4780578613281 566.5922241210938 C 503.9007568359375 568.1703491210938 503.8532104492188 568.6176147460938 503.6955871582031 570.099609375 L 503.6952819824219 570.1024780273438 L 503.6949768066406 570.1052856445313 L 503.6289672851563 570.7042846679688 L 503.6283264160156 570.710205078125 L 503.6276245117188 570.716064453125 C 503.3116760253906 573.3892822265625 501.0574951171875 575.9598999023438 498.6686096191406 578.3396606445313 L 479.681640625 597.32568359375 C 477.7565612792969 599.2507934570313 475.1929321289063 600.3109741210938 472.4630126953125 600.3109741210938 Z" stroke="none"/>
        <path d="M 519.9520263671875 517.5770263671875 C 513.3419799804688 517.5770263671875 507.1539916992188 520.1259765625 502.5180053710938 524.7630004882813 C 495.4099731445313 531.8709716796875 493.1220092773438 542.7659912109375 496.9519653320313 551.260009765625 C 497.0640258789063 551.5089721679688 497.1740112304688 551.7319946289063 497.2770385742188 551.9459838867188 C 497.6220092773438 552.6510009765625 497.8500366210938 553.1179809570313 498.0249633789063 554.2310180664063 C 498.2109985351563 555.4110107421875 498.2670288085938 556.9229736328125 497.0369873046875 558.1519775390625 C 495.0850219726563 560.10498046875 494.2639770507813 560.1920166015625 492.6279907226563 560.3660278320313 L 492.0299682617188 560.4320068359375 C 489.8030395507813 560.6939697265625 487.3729858398438 562.8699951171875 485.2890014648438 564.9639892578125 L 466.3049926757813 583.948974609375 C 462.9089965820313 587.343994140625 462.9089965820313 592.8690185546875 466.3049926757813 596.2650146484375 C 468.0029907226563 597.9630126953125 470.2319946289063 598.8109741210938 472.4630126953125 598.8109741210938 C 474.6929931640625 598.8109741210938 476.9230346679688 597.9630126953125 478.6210327148438 596.2650146484375 L 497.6099853515625 577.2769775390625 C 499.7009887695313 575.1939697265625 501.875 572.7650146484375 502.1380004882813 570.5399780273438 L 502.2040100097656 569.9409790039063 C 502.3779907226563 568.3049926757813 502.4660034179688 567.4840087890625 504.4169921875 565.531982421875 C 505.2716369628906 564.6766967773438 506.265625 564.4432983398438 507.1892395019531 564.4432373046875 C 507.5916442871094 564.4432373046875 507.9805908203125 564.487548828125 508.3389892578125 564.5440063476563 C 509.4530029296875 564.719970703125 509.9200134277344 564.947021484375 510.6260070800781 565.2930297851563 C 510.8389892578125 565.39599609375 511.06201171875 565.5050048828125 511.31201171875 565.6179809570313 C 514.0654296875 566.8604736328125 517.072265625 567.4597778320313 520.1192626953125 567.4597778320313 C 526.471923828125 567.4597778320313 533.0034790039063 564.8568725585938 537.8060302734375 560.052978515625 C 547.458984375 550.3989868164063 547.39697265625 534.6309814453125 537.6680297851563 524.9019775390625 C 532.9829711914063 520.218017578125 526.7440185546875 517.6160278320313 520.1019897460938 517.5780029296875 C 520.051025390625 517.5770263671875 520.0020141601563 517.5770263671875 519.9520263671875 517.5770263671875 M 519.9520263671875 514.5770263671875 C 520.0137939453125 514.5770263671875 520.0745239257813 514.5771484375 520.1370849609375 514.5781860351563 C 527.5667724609375 514.625244140625 534.5452270507813 517.5377807617188 539.7890625 522.7803955078125 C 550.6876220703125 533.6790161132813 550.7496337890625 551.3508911132813 539.927490234375 562.1741943359375 C 534.6634521484375 567.439697265625 527.4435424804688 570.4597778320313 520.1192626953125 570.4597778320313 C 516.5550537109375 570.4597778320313 513.1767578125 569.750732421875 510.0780639648438 568.3524780273438 C 509.8195190429688 568.235595703125 509.5932006835938 568.1260375976563 509.3935241699219 568.0294189453125 L 509.3202514648438 567.9939575195313 L 509.3130187988281 567.990478515625 L 509.3057861328125 567.9868774414063 C 508.7054138183594 567.6926879882813 508.5440368652344 567.6135864257813 507.8709411621094 567.5072631835938 C 507.5940856933594 567.4636840820313 507.3770751953125 567.4432373046875 507.1892395019531 567.4432373046875 C 506.7481994628906 567.4432373046875 506.6371154785156 567.554443359375 506.5391235351563 567.6525268554688 C 505.9127197265625 568.2792358398438 505.5262145996094 568.7537231445313 505.3901062011719 569.0631103515625 C 505.2943420410156 569.28076171875 505.2567138671875 569.6046142578125 505.1871948242188 570.2582397460938 L 505.1865844726563 570.2638549804688 L 505.1859436035156 570.26953125 L 505.1199645996094 570.8685302734375 L 505.11865234375 570.8803100585938 L 505.1172485351563 570.89208984375 C 504.7474365234375 574.0208129882813 502.3081665039063 576.831298828125 499.7272338867188 579.40234375 L 480.7423095703125 598.3863525390625 C 478.533935546875 600.5947265625 475.5936279296875 601.8109741210938 472.4630126953125 601.8109741210938 C 469.3323974609375 601.8109741210938 466.39208984375 600.5947265625 464.1836547851563 598.3863525390625 C 461.974609375 596.17724609375 460.7579956054688 593.23681640625 460.7579956054688 590.1066284179688 C 460.7579956054688 586.976318359375 461.9746704101563 584.0360107421875 464.1839599609375 581.8273315429688 L 483.16650390625 562.8438110351563 C 485.7374877929688 560.2609252929688 488.548095703125 557.8209228515625 491.6795043945313 557.4525756835938 L 491.6902465820313 557.4512939453125 L 491.7009887695313 557.4500732421875 L 492.2990112304688 557.3840942382813 L 492.3048706054688 557.3834838867188 L 492.3107299804688 557.3828125 C 492.9651489257813 557.313232421875 493.2890014648438 557.2755737304688 493.5059204101563 557.1801147460938 C 493.8150024414063 557.0441284179688 494.2890625 556.6575927734375 494.9151000976563 556.03125 C 495.0459594726563 555.9004516601563 495.2232055664063 555.723388671875 495.0615844726563 554.6982421875 C 494.9564208984375 554.0289916992188 494.8771362304688 553.8670654296875 494.5823364257813 553.2645263671875 L 494.578125 553.2559814453125 L 494.5740356445313 553.2474365234375 L 494.5147094726563 553.1245727539063 C 494.4249877929688 552.9391479492188 494.3233032226563 552.72900390625 494.21630859375 552.4912719726563 C 493.1390380859375 550.1021118164063 492.4666748046875 547.5169677734375 492.2188110351563 544.8095092773438 C 491.9794921875 542.1954956054688 492.1405029296875 539.5259399414063 492.6973266601563 536.8750610351563 C 493.2513427734375 534.2374267578125 494.18310546875 531.685546875 495.466796875 529.290283203125 C 496.7838745117188 526.832763671875 498.4425354003906 524.5958251953125 500.3966979980469 522.6416625976563 C 505.5959777832031 517.441162109375 512.541015625 514.5770263671875 519.9520263671875 514.5770263671875 Z" stroke="none" fill="#ebebeb"/>
      </g>
      <path id="Trazado_80" data-name="Trazado 80" d="M536.723,525.963a23.415,23.415,0,0,1,.138,33.029c-6.712,6.712-17.027,8.772-24.818,5.259a10.091,10.091,0,0,0-3.355-1.188,5.765,5.765,0,0,0-5.215,1.409c-2.572,2.572-2.459,3.778-2.709,5.891s-3.229,4.982-4.267,6.02l-18.821,18.822a7.209,7.209,0,0,1-10.2-10.2L486.3,566.188c1.038-1.038,3.907-4.017,6.02-4.267s3.32-.136,5.892-2.708A5.768,5.768,0,0,0,499.623,554a10.119,10.119,0,0,0-1.188-3.356c-3.514-7.791-1.453-18.106,5.258-24.818A23.416,23.416,0,0,1,536.723,525.963Z" fill="#ebebeb" stroke="#00509c" stroke-linecap="round" stroke-linejoin="round" stroke-width="3"/>
    </g>
  </g>
</svg>
