<svg id="principalDiseno" xmlns="http://www.w3.org/2000/svg" width="160" height="160" viewBox="0 0 160 160">
  <rect id="Rectángulo_157" data-name="Rectángulo 157" width="160" height="160" fill="none"/>
  <g id="Grupo_25" data-name="Grupo 25" transform="translate(-424.77 -293.657)">
    <g id="Trazado_81" data-name="Trazado 81" fill="#ebebeb" stroke-linecap="round" stroke-linejoin="round">
      <path d="M 528.1922607421875 430.4054870605469 C 526.0064086914063 430.4054870605469 523.8875122070313 429.5349426269531 522.0646362304688 427.8879089355469 C 520.1207885742188 426.1316223144531 518.6221923828125 423.5911560058594 517.7307739257813 420.5412292480469 C 516.70458984375 417.0292663574219 516.473876953125 412.0402221679688 516.2296142578125 406.7582397460938 C 515.9601440429688 400.9317932128906 515.6815185546875 394.9070129394531 514.2771606445313 390.2332153320313 C 512.5570068359375 384.5086059570313 509.2638244628906 381.6059875488281 504.489013671875 381.6059875488281 C 499.7145690917969 381.6059875488281 496.421630859375 384.5085754394531 494.70166015625 390.2330322265625 C 493.2974243164063 394.9067077636719 493.0188293457031 400.931396484375 492.7494201660156 406.7577209472656 C 492.5051574707031 412.0398864746094 492.2744750976563 417.0291442871094 491.2481994628906 420.5412902832031 C 490.35693359375 423.5908203125 488.8582763671875 426.1311340332031 486.9142150878906 427.8876342773438 C 485.0911254882813 429.5348205566406 482.9722900390625 430.4054565429688 480.7867126464844 430.4054870605469 C 479.1930236816406 430.4054870605469 477.6083984375 429.947021484375 476.0768127441406 429.0427856445313 C 474.3785095214844 428.0401306152344 472.7943725585938 426.5175170898438 471.368408203125 424.5172729492188 C 468.0544738769531 419.8683166503906 463.8465881347656 405.3615417480469 460.1123962402344 385.7117004394531 C 456.7357177734375 367.9433288574219 454.4670104980469 349.7492370605469 454.4670104980469 340.43798828125 C 454.4670104980469 336.2222595214844 455.3781433105469 332.3923645019531 457.1751098632813 329.0547180175781 C 458.7231140136719 326.1795043945313 460.9218444824219 323.6670837402344 463.710205078125 321.5872497558594 C 466.0638122558594 319.8317260742188 468.8470153808594 318.3966064453125 471.7589111328125 317.4370727539063 C 474.2248229980469 316.62451171875 476.6998291015625 316.177001953125 478.7279968261719 316.177001953125 C 482.5302429199219 316.177001953125 486.5359802246094 317.1278686523438 490.7769165039063 318.134521484375 C 495.2122497558594 319.1873474121094 499.7985534667969 320.2760009765625 504.3720092773438 320.2760009765625 C 508.9430236816406 320.2760009765625 513.5891723632813 319.1878967285156 518.0823974609375 318.1356506347656 C 522.3833618164063 317.1283874511719 526.4458618164063 316.177001953125 530.2509765625 316.177001953125 C 532.2791748046875 316.177001953125 534.754150390625 316.62451171875 537.2200927734375 317.4370727539063 C 540.1320190429688 318.3966064453125 542.9151611328125 319.8317260742188 545.268798828125 321.5872497558594 C 548.0571899414063 323.6670837402344 550.2559204101563 326.1795043945313 551.8038940429688 329.0547180175781 C 553.6008911132813 332.3923645019531 554.5120239257813 336.2222595214844 554.5120239257813 340.43798828125 C 554.5120239257813 349.7492370605469 552.2433471679688 367.9433288574219 548.8666381835938 385.7117004394531 C 545.1323852539063 405.3615417480469 540.9244995117188 419.8683166503906 537.6105346679688 424.5173034667969 C 536.184814453125 426.5172119140625 534.6006469726563 428.0397338867188 532.9021606445313 429.0425415039063 C 531.370361328125 429.9469299316406 529.7857055664063 430.4054870605469 528.1922607421875 430.4054870605469 Z" stroke="none"/>
      <path d="M 528.1922607421875 428.9054870605469 C 529.5137939453125 428.9054870605469 530.8418579101563 428.5169982910156 532.1395263671875 427.7508544921875 C 533.65625 426.8554077148438 535.0859985351563 425.4745178222656 536.3890991210938 423.6466369628906 C 537.5142822265625 422.0681762695313 539.385986328125 418.3120727539063 541.9127197265625 409.3819274902344 C 543.76318359375 402.8420104980469 545.6582641601563 394.5601501464844 547.3930053710938 385.4316711425781 C 550.75390625 367.7463073730469 553.0120239257813 349.6647033691406 553.0120239257813 340.43798828125 C 553.0120239257813 336.47314453125 552.1611938476563 332.8825073242188 550.483154296875 329.7658081054688 C 549.0396728515625 327.0847473144531 546.9835815429688 324.7376098632813 544.3719482421875 322.7896118164063 C 539.6370239257813 319.2578735351563 533.8679809570313 317.677001953125 530.2509765625 317.677001953125 C 526.619140625 317.677001953125 522.6386108398438 318.6091918945313 518.4243774414063 319.5961608886719 C 513.8482666015625 320.6678161621094 509.1163330078125 321.7760009765625 504.3720092773438 321.7760009765625 C 499.6229858398438 321.7760009765625 494.9497985839844 320.666748046875 490.4304809570313 319.5939636230469 C 486.2774047851563 318.608154296875 482.3546142578125 317.677001953125 478.7279968261719 317.677001953125 C 475.1110229492188 317.677001953125 469.3419494628906 319.2578735351563 464.6070556640625 322.7896118164063 C 461.9954223632813 324.7376098632813 459.9393310546875 327.0847473144531 458.495849609375 329.7658081054688 C 456.8178405761719 332.8825073242188 455.9670104980469 336.47314453125 455.9670104980469 340.43798828125 C 455.9670104980469 349.6647338867188 458.2251281738281 367.7463073730469 461.5859985351563 385.4316711425781 C 463.3207702636719 394.5601501464844 465.2158203125 402.8420104980469 467.0662536621094 409.3819274902344 C 469.5930480957031 418.3120727539063 471.4646911621094 422.0681762695313 472.5898132324219 423.6465454101563 C 473.8932189941406 425.474853515625 475.3229675292969 426.8558349609375 476.8394165039063 427.7511291503906 C 478.1368408203125 428.5171203613281 479.4649047851563 428.9054870605469 480.7867126464844 428.9054870605469 C 484.7074890136719 428.9054565429688 488.2487182617188 425.4571228027344 489.8084106445313 420.1205749511719 C 490.7843627929688 416.7806091308594 491.0110473632813 411.87841796875 491.2510375976563 406.6884155273438 C 491.524658203125 400.7711486816406 491.8075866699219 394.6524353027344 493.2651062011719 389.8014221191406 C 495.6727600097656 381.7880554199219 500.6976623535156 380.1059875488281 504.489013671875 380.1059875488281 C 508.2806091308594 380.1059875488281 513.3057861328125 381.7880859375 515.7136840820313 389.8015747070313 C 517.17138671875 394.6527099609375 517.454345703125 400.7715454101563 517.7279663085938 406.6889038085938 C 517.9679565429688 411.8787231445313 518.1947021484375 416.7807312011719 519.1705322265625 420.1204223632813 C 520.7302856445313 425.4571228027344 524.2715454101563 428.9054870605469 528.1922607421875 428.9054870605469 M 528.1922607421875 431.9054870605469 C 523.037841796875 431.9054870605469 518.291748046875 427.8077392578125 516.291015625 420.9620056152344 C 512.8880004882813 409.3160095214844 517.8660278320313 383.1059875488281 504.489013671875 383.1059875488281 C 491.1130065917969 383.1059875488281 496.0910034179688 409.3160095214844 492.68798828125 420.9620056152344 C 490.6874389648438 427.8070373535156 485.9405212402344 431.9054260253906 480.7867126464844 431.9054870605469 C 477.1712036132813 431.905517578125 473.35546875 429.8885803222656 470.1470031738281 425.3880004882813 C 462.364990234375 414.4710083007813 452.9670104980469 359.5650024414063 452.9670104980469 340.43798828125 C 452.9670104980469 321.3110046386719 470.6369934082031 314.677001953125 478.7279968261719 314.677001953125 C 486.8190002441406 314.677001953125 495.7210083007813 318.7760009765625 504.3720092773438 318.7760009765625 C 513.0230102539063 318.7760009765625 522.1589965820313 314.677001953125 530.2509765625 314.677001953125 C 538.3419799804688 314.677001953125 556.0120239257813 321.3110046386719 556.0120239257813 340.43798828125 C 556.0120239257813 359.5650024414063 546.614013671875 414.4710083007813 538.8319702148438 425.3880004882813 C 535.6240234375 429.8879089355469 531.8073120117188 431.9054870605469 528.1922607421875 431.9054870605469 Z" stroke="none" fill="#161615"/>
    </g>
    <g id="Trazado_82" data-name="Trazado 82" transform="translate(1)" fill="#004f9d" stroke-linejoin="round">
      <path d="M 540.25 439.4249877929688 L 515.4099731445313 439.4249877929688 C 513.7557983398438 439.4249877929688 512.4099731445313 438.0791931152344 512.4099731445313 436.4249877929688 C 512.4099731445313 434.7707824707031 513.7557983398438 433.4249877929688 515.4099731445313 433.4249877929688 L 524.8300170898438 433.4249877929688 L 524.8300170898438 313.1570129394531 L 515.4099731445313 313.1570129394531 C 513.7557983398438 313.1570129394531 512.4099731445313 311.8112182617188 512.4099731445313 310.1570129394531 C 512.4099731445313 308.5028076171875 513.7557983398438 307.1570129394531 515.4099731445313 307.1570129394531 L 540.25 307.1570129394531 C 541.9041748046875 307.1570129394531 543.25 308.5028076171875 543.25 310.1570129394531 C 543.25 311.8112182617188 541.9041748046875 313.1570129394531 540.25 313.1570129394531 L 530.8300170898438 313.1570129394531 L 530.8300170898438 433.4249877929688 L 540.25 433.4249877929688 C 541.9041748046875 433.4249877929688 543.25 434.7707824707031 543.25 436.4249877929688 C 543.25 438.0791931152344 541.9041748046875 439.4249877929688 540.25 439.4249877929688 Z" stroke="none"/>
      <path d="M 540.25 437.9249877929688 C 541.0780029296875 437.9249877929688 541.75 437.2539978027344 541.75 436.4249877929688 C 541.75 435.5960083007813 541.0780029296875 434.9249877929688 540.25 434.9249877929688 L 529.3300170898438 434.9249877929688 L 529.3300170898438 311.6570129394531 L 540.25 311.6570129394531 C 541.0780029296875 311.6570129394531 541.75 310.9849853515625 541.75 310.1570129394531 C 541.75 309.3280029296875 541.0780029296875 308.6570129394531 540.25 308.6570129394531 L 515.4099731445313 308.6570129394531 C 514.5819702148438 308.6570129394531 513.9099731445313 309.3280029296875 513.9099731445313 310.1570129394531 C 513.9099731445313 310.9849853515625 514.5819702148438 311.6570129394531 515.4099731445313 311.6570129394531 L 526.3300170898438 311.6570129394531 L 526.3300170898438 434.9249877929688 L 515.4099731445313 434.9249877929688 C 514.5819702148438 434.9249877929688 513.9099731445313 435.5960083007813 513.9099731445313 436.4249877929688 C 513.9099731445313 437.2539978027344 514.5819702148438 437.9249877929688 515.4099731445313 437.9249877929688 L 540.25 437.9249877929688 M 540.25 440.9249877929688 L 515.4099731445313 440.9249877929688 C 512.9286499023438 440.9249877929688 510.9099731445313 438.9062805175781 510.9099731445313 436.4249877929688 C 510.9099731445313 433.9436950683594 512.9286499023438 431.9249877929688 515.4099731445313 431.9249877929688 L 523.3300170898438 431.9249877929688 L 523.3300170898438 314.6570129394531 L 515.4099731445313 314.6570129394531 C 512.9286499023438 314.6570129394531 510.9099731445313 312.6383056640625 510.9099731445313 310.1570129394531 C 510.9099731445313 307.6757202148438 512.9286499023438 305.6570129394531 515.4099731445313 305.6570129394531 L 540.25 305.6570129394531 C 542.7313232421875 305.6570129394531 544.75 307.6757202148438 544.75 310.1570129394531 C 544.75 312.6383056640625 542.7313232421875 314.6570129394531 540.25 314.6570129394531 L 532.3300170898438 314.6570129394531 L 532.3300170898438 431.9249877929688 L 540.25 431.9249877929688 C 542.7313232421875 431.9249877929688 544.75 433.9436950683594 544.75 436.4249877929688 C 544.75 438.9062805175781 542.7313232421875 440.9249877929688 540.25 440.9249877929688 Z" stroke="none" fill="#ebebeb"/>
    </g>
    <g id="Trazado_83" data-name="Trazado 83" fill="#004f9d" stroke-linejoin="round">
      <path d="M 560.6320190429688 357.3630065917969 C 558.9778442382813 357.3630065917969 557.6320190429688 356.0172119140625 557.6320190429688 354.3630065917969 L 557.6320190429688 344.9429931640625 L 451.2699890136719 344.9429931640625 L 451.2699890136719 354.3630065917969 C 451.2699890136719 356.0172119140625 449.9241943359375 357.3630065917969 448.2699890136719 357.3630065917969 C 446.6157836914063 357.3630065917969 445.2699890136719 356.0172119140625 445.2699890136719 354.3630065917969 L 445.2699890136719 329.5230102539063 C 445.2699890136719 327.8688049316406 446.6157836914063 326.5230102539063 448.2699890136719 326.5230102539063 C 449.9241943359375 326.5230102539063 451.2699890136719 327.8688049316406 451.2699890136719 329.5230102539063 L 451.2699890136719 338.9429931640625 L 557.6320190429688 338.9429931640625 L 557.6320190429688 329.5230102539063 C 557.6320190429688 327.8688049316406 558.9778442382813 326.5230102539063 560.6320190429688 326.5230102539063 C 562.2861938476563 326.5230102539063 563.6320190429688 327.8688049316406 563.6320190429688 329.5230102539063 L 563.6320190429688 354.3630065917969 C 563.6320190429688 356.0172119140625 562.2861938476563 357.3630065917969 560.6320190429688 357.3630065917969 Z" stroke="none"/>
      <path d="M 560.6320190429688 355.8630065917969 C 561.4609985351563 355.8630065917969 562.1320190429688 355.1919860839844 562.1320190429688 354.3630065917969 L 562.1320190429688 329.5230102539063 C 562.1320190429688 328.6950073242188 561.4609985351563 328.0230102539063 560.6320190429688 328.0230102539063 C 559.802978515625 328.0230102539063 559.1320190429688 328.6950073242188 559.1320190429688 329.5230102539063 L 559.1320190429688 340.4429931640625 L 449.7699890136719 340.4429931640625 L 449.7699890136719 329.5230102539063 C 449.7699890136719 328.6950073242188 449.0989990234375 328.0230102539063 448.2699890136719 328.0230102539063 C 447.4410095214844 328.0230102539063 446.7699890136719 328.6950073242188 446.7699890136719 329.5230102539063 L 446.7699890136719 354.3630065917969 C 446.7699890136719 355.1919860839844 447.4410095214844 355.8630065917969 448.2699890136719 355.8630065917969 C 449.0989990234375 355.8630065917969 449.7699890136719 355.1919860839844 449.7699890136719 354.3630065917969 L 449.7699890136719 343.4429931640625 L 559.1320190429688 343.4429931640625 L 559.1320190429688 354.3630065917969 C 559.1320190429688 355.1919860839844 559.802978515625 355.8630065917969 560.6320190429688 355.8630065917969 M 560.6320190429688 358.8630065917969 C 558.1506958007813 358.8630065917969 556.1320190429688 356.8443298339844 556.1320190429688 354.3630065917969 L 556.1320190429688 346.4429931640625 L 452.7699890136719 346.4429931640625 L 452.7699890136719 354.3630065917969 C 452.7699890136719 356.8443298339844 450.7513122558594 358.8630065917969 448.2699890136719 358.8630065917969 C 445.7886657714844 358.8630065917969 443.7699890136719 356.8443298339844 443.7699890136719 354.3630065917969 L 443.7699890136719 329.5230102539063 C 443.7699890136719 327.0416870117188 445.7886657714844 325.0230102539063 448.2699890136719 325.0230102539063 C 450.7513122558594 325.0230102539063 452.7699890136719 327.0416870117188 452.7699890136719 329.5230102539063 L 452.7699890136719 337.4429931640625 L 556.1320190429688 337.4429931640625 L 556.1320190429688 329.5230102539063 C 556.1320190429688 327.0416870117188 558.1506958007813 325.0230102539063 560.6320190429688 325.0230102539063 C 563.1133422851563 325.0230102539063 565.1320190429688 327.0416870117188 565.1320190429688 329.5230102539063 L 565.1320190429688 354.3630065917969 C 565.1320190429688 356.8443298339844 563.1133422851563 358.8630065917969 560.6320190429688 358.8630065917969 Z" stroke="none" fill="#ebebeb"/>
    </g>
  </g>
</svg>
