<svg xmlns="http://www.w3.org/2000/svg" width="48" height="48" viewBox="0 0 48 48"><rect width="48" height="48" fill="none"/><g transform="translate(2 2)"><path d="M40.02,0H3.98A3.98,3.98,0,0,0,0,3.98V40.02A3.98,3.98,0,0,0,3.98,44H40.02A3.98,3.98,0,0,0,44,40.02V3.98A3.98,3.98,0,0,0,40.02,0Z" transform="translate(0 0)" fill="#efefef"/><path d="M102.14,94.656c-.22,10.12-6.6,17.16-16.28,17.6a16.013,16.013,0,0,1-9.46-2.64,11.679,11.679,0,0,0,8.58-2.42,5.943,5.943,0,0,1-5.5-4.18,8.874,8.874,0,0,0,2.42,0c-2.64-.88-4.4-2.42-4.62-5.94a4.435,4.435,0,0,0,2.42.66c-1.98-1.1-3.3-5.28-1.76-7.92,2.86,3.08,6.38,5.72,12.1,6.16-1.54-6.16,6.82-9.46,10.12-5.28a14.82,14.82,0,0,0,3.74-1.32,6.22,6.22,0,0,1-2.42,3.3,12.611,12.611,0,0,0,3.08-.88C104.34,92.9,103.24,93.776,102.14,94.656Z" transform="translate(-67.6 -78.596)" fill="#0062cb"/></g></svg>