<svg xmlns="http://www.w3.org/2000/svg" width="48" height="48" viewBox="0 0 48 48"><g transform="translate(-2 -2)"><rect width="48" height="48" transform="translate(2 2)" fill="none"/><g transform="translate(4.091 4.091)"><circle cx="22" cy="22" r="22" transform="translate(-0.091 -0.091)" fill="#efefef"/><circle cx="5.944" cy="5.944" r="5.944" transform="translate(15.99 7.699)" fill="none" stroke="#0062cb" stroke-miterlimit="10" stroke-width="2"/><path d="M397.721,202.907c.023-.564.032-1.082.028-1.538,0-.232,0-.453,0-.659-.1-6.2-2.96-9.621-7.907-7.29a1.577,1.577,0,0,0-.479.24,18.954,18.954,0,0,1-4.114,1.791,10.991,10.991,0,0,1-4.771,0,18.953,18.953,0,0,1-4.114-1.791,1.577,1.577,0,0,0-.479-.24c-4.947-2.331-7.8,1.093-7.907,7.29,0,.206,0,.426,0,.659,0,.456.005.973.028,1.538" transform="translate(-360.928 -169.777)" fill="none" stroke="#0062cb" stroke-linecap="round" stroke-miterlimit="10" stroke-width="2"/></g></g></svg>