<svg xmlns="http://www.w3.org/2000/svg" width="247.768" height="40.5" viewBox="0 0 247.768 40.5"><g transform="translate(1458.427 -634)"><rect width="166" height="39.718" transform="translate(-1458 634)" fill="none"/><g transform="translate(-1457.927 640.585)"><path d="M126,141.151h9.49a11.122,11.122,0,0,1,5.717,1.448,9.832,9.832,0,0,1,3.857,4.2,14.511,14.511,0,0,1,1.375,6.557,14.358,14.358,0,0,1-1.4,6.557,9.882,9.882,0,0,1-3.889,4.2,11.213,11.213,0,0,1-5.738,1.448H126Zm8.546,20.091a6.575,6.575,0,0,0,4.918-1.849q1.814-1.849,1.814-6.069t-1.814-6.052a6.61,6.61,0,0,0-4.918-1.831h-3.834v15.8Z" transform="translate(-126 -139.442)" fill="#efefef" stroke="rgba(0,0,0,0)" stroke-width="1"/><path d="M137.5,160.877a8.119,8.119,0,0,1-2.947-3.523,11.986,11.986,0,0,1,0-9.383,8.231,8.231,0,0,1,2.947-3.54,8.506,8.506,0,0,1,4.918-1.36,7.959,7.959,0,0,1,6.156,2.477q2.285,2.476,2.288,7.15v1.325h-12.63v.279a4.029,4.029,0,0,0,1.151,2.878,3.846,3.846,0,0,0,2.9,1.2,4.05,4.05,0,0,0,2.3-.628,3.541,3.541,0,0,0,1.363-1.709h4.744a8.107,8.107,0,0,1-8.3,6.174A8.534,8.534,0,0,1,137.5,160.877Zm8.72-9.993a4.655,4.655,0,0,0-1.113-3.244,3.737,3.737,0,0,0-2.758-1.046,3.661,3.661,0,0,0-2.857,1.151,4.722,4.722,0,0,0-1.116,3.139Z" transform="translate(-111.515 -135.781)" fill="#efefef" stroke="rgba(0,0,0,0)" stroke-width="1"/><path d="M140.34,143.524h4.883v2.825h.244a5.7,5.7,0,0,1,2.023-2.32,5.827,5.827,0,0,1,3.383-.959q3.593,0,5.075,2.3a9.453,9.453,0,0,1,1.482,5.232v11.336h-4.814V151.407a4.812,4.812,0,0,0-.959-3.174,3.794,3.794,0,0,0-5.494.052,4.918,4.918,0,0,0-.942,3.122v10.534H140.34Z" transform="translate(-98.658 -135.781)" fill="#efefef" stroke="rgba(0,0,0,0)" stroke-width="1"/><path d="M154.642,150.929v8.2a9.549,9.549,0,0,0,.122,1.814,1.421,1.421,0,0,0,.68.942,3.558,3.558,0,0,0,1.814.349,8.4,8.4,0,0,0,1.5-.139v3.348c-.259.047-.715.1-1.378.174a18.539,18.539,0,0,1-1.936.1,7.485,7.485,0,0,1-3.785-.75,3.21,3.21,0,0,1-1.552-1.884,11.18,11.18,0,0,1-.314-2.912v-9.243h-3.069v-3.767h3.1v-6h4.813v6h4.116v3.767Z" transform="translate(-86.486 -139.419)" fill="#efefef" stroke="rgba(0,0,0,0)" stroke-width="1"/><path d="M153.428,159.6a13.5,13.5,0,0,1,.02-13.9,6.343,6.343,0,0,1,5.421-2.633,5.7,5.7,0,0,1,3.665,1.064,6.542,6.542,0,0,1,1.883,2.25h.276v-2.86h4.851v18.417h-4.851v-3.174h-.276a7.133,7.133,0,0,1-1.953,2.372,5.7,5.7,0,0,1-3.7,1.081A6.249,6.249,0,0,1,153.428,159.6Zm10.22-2.965a7.391,7.391,0,0,0,1.046-4.011,7.307,7.307,0,0,0-1.029-3.976,3.773,3.773,0,0,0-6.223,0,7.4,7.4,0,0,0-1.012,3.976,7.564,7.564,0,0,0,1.012,4.029,3.386,3.386,0,0,0,3.1,1.657A3.423,3.423,0,0,0,163.647,156.639Z" transform="translate(-77.357 -135.781)" fill="#efefef" stroke="rgba(0,0,0,0)" stroke-width="1"/><path d="M160.72,166.078a3.264,3.264,0,0,1-1.532-1.953,12.278,12.278,0,0,1-.3-2.982V140.563H163.7v19.6a10.658,10.658,0,0,0,.122,1.866,1.486,1.486,0,0,0,.7.977,3.5,3.5,0,0,0,1.828.366,7.962,7.962,0,0,0,.977-.07v3.349a25.341,25.341,0,0,1-2.79.209A7.3,7.3,0,0,1,160.72,166.078Z" transform="translate(-63.286 -140.563)" fill="#efefef" stroke="rgba(0,0,0,0)" stroke-width="1"/><path d="M162.539,141.163h10.325a7.93,7.93,0,0,1,3.837.855,5.528,5.528,0,0,1,2.32,2.267,6.481,6.481,0,0,1,.75,3.087,5.072,5.072,0,0,1-3.662,5.127v.209a6.052,6.052,0,0,1,2.18.785,5.832,5.832,0,0,1,1.971,1.918,5.56,5.56,0,0,1,.837,3.122,7.64,7.64,0,0,1-.785,3.366,6.4,6.4,0,0,1-2.477,2.668,7.924,7.924,0,0,1-4.238,1.046H162.539Zm8.86,10.15a4.645,4.645,0,0,0,2.668-.767A2.737,2.737,0,0,0,175.2,148.1a2.626,2.626,0,0,0-1.116-2.372A4.786,4.786,0,0,0,171.4,145h-4.116v6.313Zm1.081,10.429a5.027,5.027,0,0,0,2.825-.8,3.546,3.546,0,0,0,0-5.354,4.949,4.949,0,0,0-2.825-.82h-5.2v6.976Z" transform="translate(-56.332 -139.419)" fill="#efefef" stroke="rgba(0,0,0,0)" stroke-width="1"/><path d="M169.715,143.227h4.779v2.93h.244a4.4,4.4,0,0,1,1.674-2.075,5.354,5.354,0,0,1,3.139-.855,4.927,4.927,0,0,1,1.256.139l-.209,4.43a6.828,6.828,0,0,0-1.849-.244,4.164,4.164,0,0,0-3.209,1.134,5.454,5.454,0,0,0-1.046,3.75v9.208h-4.779Z" transform="translate(-42.65 -135.484)" fill="#efefef" stroke="rgba(0,0,0,0)" stroke-width="1"/><path d="M175.579,159.6a13.5,13.5,0,0,1,.02-13.9,6.339,6.339,0,0,1,5.421-2.633,5.714,5.714,0,0,1,3.665,1.064,6.542,6.542,0,0,1,1.884,2.25h.276v-2.86H191.7v18.417h-4.851v-3.174h-.276a7.169,7.169,0,0,1-1.953,2.372,5.7,5.7,0,0,1-3.7,1.081A6.246,6.246,0,0,1,175.579,159.6Zm10.22-2.965a7.391,7.391,0,0,0,1.046-4.011,7.307,7.307,0,0,0-1.029-3.976,3.436,3.436,0,0,0-3.122-1.639,3.394,3.394,0,0,0-3.1,1.639,7.4,7.4,0,0,0-1.014,3.976,7.565,7.565,0,0,0,1.014,4.029,3.385,3.385,0,0,0,3.1,1.657A3.424,3.424,0,0,0,185.8,156.639Z" transform="translate(-35.12 -135.781)" fill="#efefef" stroke="rgba(0,0,0,0)" stroke-width="1"/><path d="M182.78,159.6a11.43,11.43,0,0,1-1.918-6.906,11.622,11.622,0,0,1,1.918-7.011,6.317,6.317,0,0,1,5.406-2.616,5.769,5.769,0,0,1,3.7,1.064,6.575,6.575,0,0,1,1.883,2.25h.276v-2.86h4.848V169.2h-4.848V158.767h-.276a7.074,7.074,0,0,1-1.956,2.372,5.627,5.627,0,0,1-3.66,1.081A6.284,6.284,0,0,1,182.78,159.6Zm10.223-2.9a8.248,8.248,0,0,0,.015-8,3.764,3.764,0,0,0-6.226-.017,7.429,7.429,0,0,0-1.009,3.976,7.683,7.683,0,0,0,1.009,4.046,3.382,3.382,0,0,0,3.107,1.674A3.434,3.434,0,0,0,193,156.709Z" transform="translate(-21.396 -135.781)" fill="#efefef" stroke="rgba(0,0,0,0)" stroke-width="1"/><path d="M204.828,161.644H199.98v-2.93h-.244a5.87,5.87,0,0,1-1.968,2.32,5.539,5.539,0,0,1-3.3.959q-3.523,0-4.953-2.32a9.734,9.734,0,0,1-1.43-5.215V143.227H192.9v10.429a5.019,5.019,0,0,0,.907,3.157,3.075,3.075,0,0,0,2.581,1.168,3.134,3.134,0,0,0,2.706-1.221,5.156,5.156,0,0,0,.886-3.1V143.227h4.848Z" transform="translate(-7.622 -135.484)" fill="#efefef" stroke="rgba(0,0,0,0)" stroke-width="1"/><path d="M198.533,160.877a8.119,8.119,0,0,1-2.947-3.523,11.952,11.952,0,0,1,0-9.383,8.231,8.231,0,0,1,2.947-3.54,8.506,8.506,0,0,1,4.918-1.36,7.968,7.968,0,0,1,6.156,2.477q2.285,2.476,2.285,7.15v1.325H199.265v.279a4.018,4.018,0,0,0,1.151,2.878,3.838,3.838,0,0,0,2.9,1.2,4.057,4.057,0,0,0,2.3-.628,3.558,3.558,0,0,0,1.363-1.709h4.741a8.107,8.107,0,0,1-8.3,6.174A8.524,8.524,0,0,1,198.533,160.877Zm8.72-9.993a4.642,4.642,0,0,0-1.116-3.244,3.726,3.726,0,0,0-2.756-1.046,3.671,3.671,0,0,0-2.86,1.151,4.735,4.735,0,0,0-1.113,3.139Z" transform="translate(4.848 -135.781)" fill="#efefef" stroke="rgba(0,0,0,0)" stroke-width="1"/><path d="M208.94,150.929v8.2a9.813,9.813,0,0,0,.122,1.814,1.421,1.421,0,0,0,.68.942,3.557,3.557,0,0,0,1.814.349,8.372,8.372,0,0,0,1.5-.139v3.348q-.384.07-1.378.174a18.5,18.5,0,0,1-1.936.1,7.484,7.484,0,0,1-3.785-.75,3.22,3.22,0,0,1-1.552-1.884,11.178,11.178,0,0,1-.314-2.912v-9.243h-3.069v-3.767h3.1v-6h4.814v6h4.116v3.767Z" transform="translate(17.043 -139.419)" fill="#efefef" stroke="rgba(0,0,0,0)" stroke-width="1"/><path d="M209.281,161.348a6.3,6.3,0,0,1-2.561-2.285,5.567,5.567,0,0,1-.875-2.982v-.209h4.709v.209a2.3,2.3,0,0,0,.732,1.674,2.882,2.882,0,0,0,2.128.732,3.013,3.013,0,0,0,1.866-.541,1.757,1.757,0,0,0,.715-1.482,1.587,1.587,0,0,0-.625-1.325,3.3,3.3,0,0,0-1.57-.628l-2.1-.419a8.813,8.813,0,0,1-3.729-1.639,4.441,4.441,0,0,1-1.677-3.8,4.885,4.885,0,0,1,1.921-4.1,7.805,7.805,0,0,1,4.918-1.482,8.427,8.427,0,0,1,3.8.8,5.981,5.981,0,0,1,2.439,2.11,5.119,5.119,0,0,1,.84,2.808v.14h-4.712v-.1a2.3,2.3,0,0,0-.625-1.552,2.426,2.426,0,0,0-1.921-.715,2.617,2.617,0,0,0-1.744.558,1.831,1.831,0,0,0-.663,1.465,1.547,1.547,0,0,0,.68,1.325,4.035,4.035,0,0,0,1.692.663l2.3.453a8.736,8.736,0,0,1,3.77,1.761,4.434,4.434,0,0,1,1.532,3.61,5.144,5.144,0,0,1-.942,3.069,6.033,6.033,0,0,1-2.6,2.041,9.189,9.189,0,0,1-3.677.715A8.7,8.7,0,0,1,209.281,161.348Z" transform="translate(26.239 -135.781)" fill="#efefef" stroke="rgba(0,0,0,0)" stroke-width="1"/></g></g></svg>