<svg id="disenoWebMaps" xmlns="http://www.w3.org/2000/svg" width="160" height="160" viewBox="0 0 160 160">
  <rect id="Rectángulo_157" data-name="Rectángulo 157" width="160" height="160" fill="none"/>
  <g id="Grupo_35" data-name="Grupo 35" transform="translate(-600.639 -624.895)">
    <g id="Trazado_97" data-name="Trazado 97" fill="#ebebeb" stroke-linecap="round" stroke-linejoin="round">
      <path d="M 704.14501953125 743.6240234375 C 702.0687866210938 743.6240234375 700.4889526367188 743.2839965820313 699.1731567382813 742.5538940429688 C 697.7167358398438 741.7457885742188 696.4724731445313 740.4203491210938 695.2572631835938 738.3827514648438 C 694.1559448242188 736.5369873046875 687.5474243164063 719.26318359375 682.4200439453125 702.547119140625 L 680.9861450195313 697.872314453125 L 679.552001953125 702.5470581054688 C 674.4243774414063 719.2605590820313 667.8157348632813 736.5360107421875 666.714599609375 738.3828735351563 C 665.4991455078125 740.4202880859375 664.2545776367188 741.7457275390625 662.7980346679688 742.5538940429688 C 661.4821166992188 743.283935546875 659.9021606445313 743.6240234375 657.8259887695313 743.6240234375 C 655.7498168945313 743.6240234375 654.169921875 743.283935546875 652.85400390625 742.5538940429688 C 651.3974609375 741.7457275390625 650.15283203125 740.4202880859375 648.9371337890625 738.3825073242188 C 648.0829467773438 736.9503173828125 643.4639282226563 725.1609497070313 638.7836303710938 710.9716796875 C 633.2090454101563 694.0711669921875 630.1389770507813 681.680419921875 630.1389770507813 676.0819702148438 C 630.1389770507813 672.3436889648438 630.8707885742188 668.718017578125 632.3140869140625 665.3056640625 C 633.70849609375 662.0088500976563 635.7050170898438 659.0477905273438 638.2481689453125 656.5045166015625 C 640.7913818359375 653.9613037109375 643.7525024414063 651.9647216796875 647.0492553710938 650.5702514648438 C 650.4617309570313 649.1268920898438 654.0875244140625 648.39501953125 657.8259887695313 648.39501953125 C 662.2037353515625 648.39501953125 666.3906860351563 649.3922119140625 670.2705688476563 651.3588256835938 C 673.9656372070313 653.2317504882813 677.2592163085938 655.9713134765625 679.7953491210938 659.2813110351563 L 680.9861450195313 660.8355102539063 L 682.1767578125 659.2811889648438 C 684.7122802734375 655.9713134765625 688.0055541992188 653.2318115234375 691.7005615234375 651.3588256835938 C 695.580322265625 649.3922119140625 699.7672119140625 648.39501953125 704.14501953125 648.39501953125 C 707.8834838867188 648.39501953125 711.50927734375 649.1268920898438 714.9217529296875 650.5702514648438 C 718.218505859375 651.9647216796875 721.1796264648438 653.9613037109375 723.7228393554688 656.5045166015625 C 726.2659912109375 659.0477905273438 728.2625122070313 662.0088500976563 729.6568603515625 665.3056640625 C 731.1001586914063 668.718017578125 731.8319702148438 672.3436889648438 731.8319702148438 676.0819702148438 C 731.8319702148438 681.6807250976563 728.7620849609375 694.0714721679688 723.187744140625 710.9716796875 C 718.507080078125 725.162353515625 713.8881225585938 736.950927734375 713.033935546875 738.38232421875 C 711.8181762695313 740.4202880859375 710.5735473632813 741.7457275390625 709.1170043945313 742.5538940429688 C 707.8010864257813 743.283935546875 706.22119140625 743.6240234375 704.14501953125 743.6240234375 Z" stroke="none"/>
      <path d="M 657.8259887695313 649.89501953125 C 654.2893676757813 649.89501953125 650.8601684570313 650.5869750976563 647.633544921875 651.9517822265625 C 644.515625 653.2705688476563 641.7147827148438 655.1591796875 639.308837890625 657.565185546875 C 636.9029541015625 659.9711303710938 635.0143432617188 662.77197265625 633.6956176757813 665.8899536132813 C 632.3309326171875 669.116455078125 631.6389770507813 672.5455322265625 631.6389770507813 676.0819702148438 C 631.6389770507813 678.0780639648438 632.0858764648438 682.1924438476563 634.21484375 690.4577026367188 C 635.6740112304688 696.1226806640625 637.685546875 702.8516235351563 640.1935424804688 710.4575805664063 C 642.2136840820313 716.5840454101563 644.48388671875 723.0415649414063 646.5858764648438 728.6404418945313 C 648.7105712890625 734.2998046875 649.9266967773438 737.10791015625 650.225341796875 737.614013671875 C 651.2997436523438 739.4149780273438 652.3662719726563 740.56787109375 653.5817260742188 741.2421875 C 654.680908203125 741.85205078125 655.9898681640625 742.1240234375 657.8259887695313 742.1240234375 C 659.662109375 742.1240234375 660.9711303710938 741.85205078125 662.0703125 741.2421875 C 663.2857055664063 740.56787109375 664.3522338867188 739.4149780273438 665.4259643554688 737.6151123046875 C 665.8325805664063 736.9259033203125 667.6002807617188 732.687255859375 670.2572021484375 725.421630859375 C 671.8993530273438 720.930908203125 675.1041870117188 711.9305419921875 678.1179809570313 702.1071166992188 C 678.5045166015625 700.8471069335938 679.6681518554688 699.9869995117188 680.986083984375 699.9869995117188 C 682.3040771484375 699.987060546875 683.4676513671875 700.8472290039063 683.8541259765625 702.1072998046875 C 686.867431640625 711.9312133789063 690.0718383789063 720.9306640625 691.7137451171875 725.4207763671875 C 694.3705444335938 732.686279296875 696.1385498046875 736.9249267578125 696.5455932617188 737.6144409179688 C 697.6195068359375 739.4152221679688 698.6856689453125 740.5679931640625 699.90087890625 741.2422485351563 C 700.9999389648438 741.85205078125 702.3088989257813 742.1240234375 704.14501953125 742.1240234375 C 705.9811401367188 742.1240234375 707.2901000976563 741.85205078125 708.3892822265625 741.2421875 C 709.604736328125 740.56787109375 710.6712646484375 739.4149780273438 711.74560546875 737.6140747070313 C 712.0447387695313 737.1073608398438 713.2610473632813 734.2991943359375 715.3858642578125 728.6397094726563 C 717.4876708984375 723.0413818359375 719.7577514648438 716.5839233398438 721.7780151367188 710.4569702148438 C 724.2857666015625 702.851318359375 726.2971801757813 696.1224975585938 727.7562866210938 690.4574584960938 C 729.8851318359375 682.1924438476563 730.3319702148438 678.0780639648438 730.3319702148438 676.0819702148438 C 730.3319702148438 672.5455322265625 729.6400146484375 669.116455078125 728.2753295898438 665.8899536132813 C 726.9566040039063 662.77197265625 725.0680541992188 659.9711303710938 722.6621704101563 657.565185546875 C 720.2562255859375 655.1591796875 717.4553833007813 653.2705688476563 714.33740234375 651.9517822265625 C 711.1109008789063 650.5869750976563 707.681640625 649.89501953125 704.14501953125 649.89501953125 C 700.0050659179688 649.89501953125 696.04638671875 650.837646484375 692.3787841796875 652.69677734375 C 688.8831787109375 654.4686279296875 685.7671508789063 657.0609741210938 683.3675537109375 660.193359375 C 682.7998657226563 660.9344482421875 681.9196166992188 661.3689575195313 680.9861450195313 661.3690185546875 C 680.0526733398438 661.3690795898438 679.17236328125 660.9345703125 678.6046752929688 660.193603515625 C 676.2045288085938 657.06103515625 673.088134765625 654.4686889648438 669.5924072265625 652.69677734375 C 665.9246826171875 650.837646484375 661.9658813476563 649.89501953125 657.8259887695313 649.89501953125 M 657.8259887695313 646.89501953125 C 667.2750244140625 646.89501953125 675.6510009765625 651.406005859375 680.9860229492188 658.3690185546875 C 686.3200073242188 651.406005859375 694.6959838867188 646.89501953125 704.14501953125 646.89501953125 C 720.2650146484375 646.89501953125 733.3319702148438 659.9630126953125 733.3319702148438 676.0819702148438 C 733.3319702148438 689.791015625 716.416015625 735.6420288085938 714.322021484375 739.1510009765625 C 711.572998046875 743.7589721679688 708.5239868164063 745.1240234375 704.14501953125 745.1240234375 C 699.7659912109375 745.1240234375 696.7169799804688 743.7589721679688 693.968994140625 739.1510009765625 C 692.7069702148438 737.0360107421875 686.0670166015625 719.552001953125 680.9860229492188 702.9869995117188 C 675.9039916992188 719.552001953125 669.2639770507813 737.0360107421875 668.0029907226563 739.1510009765625 C 665.2540283203125 743.7589721679688 662.2050170898438 745.1240234375 657.8259887695313 745.1240234375 C 653.447021484375 745.1240234375 650.3980102539063 743.7589721679688 647.6489868164063 739.1510009765625 C 645.5560302734375 735.6420288085938 628.6389770507813 689.791015625 628.6389770507813 676.0819702148438 C 628.6389770507813 659.9630126953125 641.7059936523438 646.89501953125 657.8259887695313 646.89501953125 Z" stroke="none" fill="#161615"/>
    </g>
    <g id="Elipse_7" data-name="Elipse 7" transform="translate(646.07 664.326)" fill="#ebebeb" stroke="#161615" stroke-linecap="round" stroke-linejoin="round" stroke-width="3">
      <circle cx="11.756" cy="11.756" r="11.756" stroke="none"/>
      <circle cx="11.756" cy="11.756" r="10.256" fill="none"/>
    </g>
    <ellipse id="Elipse_8" data-name="Elipse 8" cx="17.133" cy="4.966" rx="17.133" ry="4.966" transform="translate(640.693 753.178)" fill="#ebebeb" stroke="#00509c" stroke-linecap="round" stroke-linejoin="round" stroke-width="3"/>
    <g id="Elipse_9" data-name="Elipse 9" transform="translate(692.389 664.326)" fill="#ebebeb" stroke="#161615" stroke-linecap="round" stroke-linejoin="round" stroke-width="3">
      <circle cx="11.756" cy="11.756" r="11.756" stroke="none"/>
      <circle cx="11.756" cy="11.756" r="10.256" fill="none"/>
    </g>
    <ellipse id="Elipse_10" data-name="Elipse 10" cx="17.133" cy="4.966" rx="17.133" ry="4.966" transform="translate(687.013 753.178)" fill="#ebebeb" stroke="#00509c" stroke-linecap="round" stroke-linejoin="round" stroke-width="3"/>
  </g>
</svg>
