<svg xmlns="http://www.w3.org/2000/svg" width="48" height="48" viewBox="0 0 48 48"><rect width="48" height="48" fill="none"/><g transform="translate(2 2)"><path d="M40.02,0H3.98A3.98,3.98,0,0,0,0,3.98V40.02A3.98,3.98,0,0,0,3.98,44H40.02A3.98,3.98,0,0,0,44,40.02V3.98A3.98,3.98,0,0,0,40.02,0Z" transform="translate(0 0)" fill="#efefef"/><g transform="translate(16.5 8.25)"><path d="M212.625,109.75H205.75v-5.5c0-1.518,1.232-1.375,2.75-1.375h2.75V96h-5.5a8.249,8.249,0,0,0-8.25,8.25v5.5H192v6.875h5.5V131.75h8.25V116.625h4.125Z" transform="translate(-192 -96)" fill="#0062cb"/></g></g></svg>