<svg xmlns="http://www.w3.org/2000/svg" width="48" height="48" viewBox="0 0 48 48"><rect width="48" height="48" fill="none"/><path d="M40.02,0H3.98A3.98,3.98,0,0,0,0,3.98V40.02A3.98,3.98,0,0,0,3.98,44H40.02A3.98,3.98,0,0,0,44,40.02V3.98A3.98,3.98,0,0,0,40.02,0Zm-26.4,37.993a1.158,1.158,0,0,1-1.158,1.158H7.527a1.158,1.158,0,0,1-1.158-1.158V17.324a1.158,1.158,0,0,1,1.158-1.158h4.931a1.158,1.158,0,0,1,1.158,1.158ZM9.992,14.217a4.684,4.684,0,1,1,4.684-4.684A4.684,4.684,0,0,1,9.992,14.217Zm29.39,23.869a1.065,1.065,0,0,1-1.065,1.065H33.027a1.065,1.065,0,0,1-1.065-1.065V28.391c0-1.446.424-6.337-3.78-6.337-3.261,0-3.922,3.348-4.055,4.85V38.086a1.065,1.065,0,0,1-1.065,1.065H17.945a1.065,1.065,0,0,1-1.065-1.065V17.231a1.065,1.065,0,0,1,1.065-1.065h5.117a1.065,1.065,0,0,1,1.065,1.065v1.8c1.209-1.814,3.006-3.215,6.832-3.215,8.472,0,8.423,7.915,8.423,12.264v10Z" transform="translate(2 2)" fill="#efefef"/></svg>