<svg id="principal" xmlns="http://www.w3.org/2000/svg" width="160" height="160" viewBox="0 0 160 160">
  <rect id="Rectángulo_157" data-name="Rectángulo 157" width="160" height="160" fill="none"/>
  <path id="Trazado_73" data-name="Trazado 73" d="M283.445,465.431c-11.868,0-7.451,23.258-10.473,33.59s-13.1,13.611-20,3.926-15.242-58.4-15.242-75.372,15.678-22.857,22.857-22.857,15.076,3.638,22.751,3.638,15.784-3.638,22.963-3.638,22.857,5.884,22.857,22.857-8.339,65.687-15.242,75.372-16.983,6.406-20-3.926S295.313,465.431,283.445,465.431Z" transform="translate(-203.637 -376.629)" fill="#ebebeb" stroke="#161615" stroke-linecap="round" stroke-linejoin="round" stroke-width="1"/>
  <path id="Trazado_74" data-name="Trazado 74" d="M274.083,442.558H255.936l25.915-40.807,25.915,40.807H289.619v52.447H274.083Z" transform="translate(-161.118 -380.791)" fill="#ebebeb" stroke="#0062cb" stroke-linecap="round" stroke-linejoin="round" stroke-width="1"/>
</svg>
